<svg id="svg" version="1.1" width="400" height="400" viewBox="0 0 400 400" xmlns="http://www.w3.org/2000/svg" xmlns:xlink="http://www.w3.org/1999/xlink"><g id="svgg"><path id="path0" d="M272.935 4.224 C 272.562 5.198,273.353 5.780,281.686 10.660 C 286.095 13.242,290.038 15.635,290.449 15.977 C 291.167 16.576,291.072 16.877,287.964 23.800 C 286.186 27.760,284.136 32.350,283.407 34.000 C 282.678 35.650,280.104 41.410,277.686 46.800 C 272.371 58.646,265.934 73.014,260.422 85.335 C 258.175 90.358,256.395 94.517,256.468 94.577 C 298.165 128.516,316.350 185.074,302.568 237.953 C 301.801 240.897,301.224 243.347,301.287 243.397 C 301.349 243.448,305.450 245.830,310.400 248.692 C 315.350 251.553,321.110 254.884,323.200 256.092 C 329.252 259.592,343.765 268.003,354.400 274.174 C 359.790 277.302,365.865 280.815,367.900 281.981 C 370.188 283.291,371.600 284.348,371.600 284.752 C 371.600 285.111,369.101 291.159,366.047 298.193 C 359.708 312.789,359.824 311.914,363.938 314.127 C 366.564 315.540,368.874 315.890,368.182 314.771 C 368.056 314.567,368.119 314.400,368.322 314.400 C 368.525 314.400,369.011 313.545,369.403 312.500 C 369.794 311.455,370.728 309.293,371.478 307.695 C 372.228 306.097,372.743 304.631,372.623 304.437 C 372.503 304.243,372.674 303.981,373.002 303.854 C 373.331 303.728,373.600 303.356,373.600 303.026 C 373.600 302.336,374.281 300.704,376.454 296.185 C 377.304 294.416,378.002 292.706,378.005 292.385 C 378.008 292.063,378.539 290.757,379.186 289.482 C 380.635 286.624,380.537 286.356,377.467 284.806 C 376.110 284.121,373.560 282.677,371.800 281.597 C 367.354 278.870,365.451 277.825,365.100 277.919 C 364.935 277.964,364.800 277.820,364.800 277.600 C 364.800 277.380,364.630 277.200,364.423 277.200 C 364.216 277.200,362.461 276.235,360.523 275.056 C 358.585 273.877,356.595 272.785,356.100 272.629 C 355.605 272.474,355.200 272.178,355.200 271.973 C 355.200 271.768,354.930 271.600,354.600 271.600 C 354.270 271.600,354.000 271.420,354.000 271.200 C 354.000 270.980,353.716 270.800,353.368 270.800 C 353.020 270.800,351.786 270.170,350.626 269.400 C 349.466 268.630,348.311 268.000,348.059 268.000 C 347.806 268.000,347.600 267.809,347.600 267.576 C 347.600 267.343,347.435 267.255,347.234 267.379 C 347.033 267.503,346.808 267.447,346.734 267.253 C 346.619 266.952,345.536 266.315,341.546 264.205 C 341.136 263.988,340.800 263.673,340.800 263.505 C 340.800 263.337,340.545 263.200,340.233 263.200 C 339.922 263.200,339.607 263.065,339.533 262.900 C 339.460 262.735,338.500 262.169,337.400 261.642 C 336.300 261.115,335.116 260.441,334.769 260.143 C 334.169 259.627,333.150 259.058,327.900 256.303 C 326.635 255.640,325.600 254.929,325.600 254.725 C 325.600 254.520,325.440 254.451,325.245 254.572 C 325.050 254.693,324.670 254.525,324.400 254.200 C 324.130 253.875,323.750 253.707,323.555 253.828 C 323.360 253.949,323.200 253.854,323.200 253.617 C 323.200 253.381,322.525 252.875,321.700 252.494 C 320.875 252.112,319.858 251.491,319.439 251.114 C 319.021 250.736,318.526 250.522,318.339 250.637 C 318.153 250.753,318.000 250.701,318.000 250.521 C 318.000 250.342,317.415 249.943,316.700 249.635 C 315.985 249.327,314.890 248.720,314.267 248.286 C 313.644 247.853,312.384 247.101,311.467 246.615 C 309.500 245.571,309.507 245.718,311.114 239.724 C 311.774 237.262,312.213 235.147,312.090 235.024 C 311.967 234.901,312.058 234.800,312.291 234.800 C 312.524 234.800,312.716 234.395,312.717 233.900 C 312.718 233.405,312.934 232.190,313.198 231.200 C 313.461 230.210,313.747 228.680,313.835 227.800 C 313.922 226.920,314.080 225.480,314.187 224.600 C 314.294 223.720,314.549 221.560,314.754 219.800 C 315.209 215.903,315.233 196.404,314.788 192.800 C 314.611 191.370,314.350 188.850,314.207 187.200 C 314.064 185.550,313.882 183.750,313.804 183.200 C 313.570 181.574,313.149 179.161,312.939 178.249 C 312.831 177.782,312.698 177.130,312.643 176.800 C 312.588 176.470,312.432 175.930,312.295 175.600 C 312.159 175.270,311.743 173.560,311.372 171.800 C 311.000 170.040,310.591 168.420,310.463 168.201 C 310.335 167.982,310.191 167.280,310.142 166.641 C 310.093 166.003,309.816 165.330,309.527 165.146 C 309.237 164.963,309.127 164.809,309.282 164.806 C 309.437 164.803,309.310 164.080,309.000 163.200 C 308.690 162.320,308.524 161.600,308.632 161.600 C 308.740 161.600,308.634 161.237,308.396 160.793 C 308.158 160.349,307.230 157.878,306.333 155.303 C 305.435 152.728,304.474 150.256,304.196 149.810 C 303.918 149.365,303.374 148.021,302.988 146.824 C 302.249 144.535,298.529 137.174,297.900 136.755 C 297.697 136.621,297.518 136.351,297.502 136.155 C 297.429 135.273,297.080 134.400,296.800 134.400 C 296.631 134.400,296.393 134.085,296.269 133.700 C 296.146 133.315,295.409 131.920,294.631 130.600 C 293.853 129.280,293.091 127.930,292.938 127.600 C 292.784 127.270,292.534 126.910,292.382 126.800 C 292.231 126.690,291.422 125.520,290.585 124.200 C 289.749 122.880,288.777 121.530,288.427 121.200 C 288.076 120.870,287.316 119.880,286.739 119.000 C 286.162 118.120,285.174 116.824,284.545 116.121 C 283.915 115.417,282.680 113.982,281.800 112.933 C 279.465 110.147,272.731 103.224,272.445 103.314 C 272.310 103.356,271.531 102.718,270.713 101.895 C 269.896 101.073,269.152 100.400,269.062 100.400 C 268.971 100.400,268.155 99.680,267.248 98.800 C 266.341 97.920,265.416 97.200,265.192 97.200 C 264.678 97.200,265.123 95.216,265.820 94.400 C 266.438 93.677,268.022 89.600,267.685 89.600 C 267.554 89.600,267.724 89.375,268.062 89.100 C 268.400 88.825,268.902 87.970,269.179 87.200 C 269.914 85.149,270.147 84.615,272.315 80.000 C 273.401 77.690,274.602 75.080,274.984 74.200 C 275.366 73.320,276.207 71.467,276.853 70.081 C 277.498 68.696,278.395 66.627,278.846 65.482 C 279.297 64.338,279.830 63.205,280.030 62.964 C 280.230 62.723,280.275 62.408,280.130 62.263 C 279.985 62.118,280.056 62.000,280.287 62.000 C 280.519 62.000,281.016 61.055,281.392 59.900 C 281.769 58.745,282.549 56.810,283.127 55.600 C 283.705 54.390,284.138 53.265,284.089 53.100 C 284.040 52.935,284.191 52.800,284.424 52.800 C 284.657 52.800,284.749 52.640,284.628 52.445 C 284.507 52.250,284.659 51.883,284.965 51.629 C 285.271 51.375,285.637 50.708,285.778 50.146 C 285.919 49.584,287.107 46.892,288.417 44.164 C 289.728 41.436,290.800 39.042,290.800 38.843 C 290.800 38.644,291.304 37.518,291.921 36.341 C 292.538 35.163,293.539 32.850,294.146 31.200 C 294.753 29.550,295.548 27.750,295.914 27.200 C 296.280 26.650,296.599 26.110,296.623 26.000 C 296.779 25.290,298.270 21.833,299.108 20.238 C 299.758 19.002,298.375 17.255,296.200 16.563 C 295.760 16.423,295.040 15.982,294.600 15.584 C 294.160 15.186,292.900 14.391,291.800 13.819 C 289.518 12.631,288.289 11.903,288.000 11.569 C 287.890 11.441,287.260 11.062,286.600 10.725 C 283.366 9.074,280.754 7.600,281.059 7.598 C 281.247 7.596,280.950 7.357,280.400 7.065 C 279.850 6.774,278.383 5.958,277.141 5.253 C 274.433 3.715,273.243 3.424,272.935 4.224 M228.800 78.175 C 228.800 78.567,230.792 79.536,230.979 79.235 C 231.100 79.038,230.659 78.690,230.000 78.460 C 229.340 78.230,228.800 78.102,228.800 78.175 M33.416 87.902 C 33.009 88.962,33.780 89.456,54.800 101.603 C 65.910 108.024,78.330 115.217,82.400 117.589 C 99.023 127.277,98.401 126.986,98.399 125.076 C 98.398 124.208,96.363 122.493,95.579 122.700 C 95.371 122.755,95.200 122.617,95.200 122.394 C 95.200 122.170,94.525 121.681,93.700 121.307 C 92.875 120.932,91.694 120.285,91.075 119.868 C 90.457 119.452,89.197 118.706,88.275 118.211 C 85.376 116.656,82.637 115.109,81.600 114.443 C 81.050 114.089,79.706 113.350,78.614 112.800 C 77.521 112.250,76.190 111.395,75.655 110.900 C 75.121 110.405,74.528 110.000,74.337 110.000 C 73.705 110.000,70.525 108.376,69.757 107.661 C 69.029 106.984,68.057 106.425,64.600 104.695 C 63.720 104.255,62.910 103.757,62.800 103.589 C 62.690 103.421,61.160 102.526,59.400 101.600 C 57.640 100.674,56.110 99.801,56.000 99.659 C 55.738 99.320,54.742 98.737,51.700 97.145 C 50.325 96.425,49.200 95.693,49.200 95.518 C 49.200 95.343,48.972 95.200,48.693 95.200 C 48.414 95.200,47.533 94.756,46.735 94.214 C 45.936 93.672,45.040 93.177,44.742 93.114 C 44.444 93.051,43.660 92.622,43.000 92.160 C 42.340 91.698,40.540 90.644,39.000 89.818 C 37.460 88.991,35.993 88.148,35.741 87.943 C 34.896 87.257,33.672 87.236,33.416 87.902 M183.200 103.451 C 165.704 105.661,148.090 113.785,137.400 124.573 C 89.282 173.132,102.513 258.224,162.600 286.644 C 168.051 289.222,174.400 291.229,174.400 290.374 C 174.400 290.168,174.085 289.991,173.700 289.981 C 173.315 289.970,171.560 289.177,169.800 288.218 C 168.040 287.259,165.475 285.909,164.100 285.217 C 162.725 284.525,161.600 283.788,161.600 283.580 C 161.600 283.371,161.426 283.200,161.213 283.200 C 160.645 283.200,156.021 280.182,154.400 278.753 C 153.630 278.075,152.326 277.132,151.503 276.660 C 150.680 276.187,150.005 275.590,150.003 275.333 C 150.001 275.076,149.377 274.480,148.615 274.009 C 147.854 273.539,146.668 272.444,145.982 271.577 C 145.295 270.710,144.544 270.000,144.312 270.000 C 143.825 270.000,142.000 268.122,142.000 267.621 C 142.000 267.435,141.370 266.730,140.600 266.054 C 139.830 265.378,139.200 264.666,139.200 264.473 C 139.200 264.280,138.885 263.740,138.500 263.273 C 136.330 260.642,135.683 259.764,135.676 259.445 C 135.672 259.249,135.518 258.979,135.334 258.845 C 134.911 258.535,134.113 257.265,133.609 256.100 C 133.395 255.605,133.035 255.200,132.810 255.200 C 132.584 255.200,132.400 254.987,132.400 254.726 C 132.400 254.465,132.069 253.880,131.665 253.426 C 131.260 252.972,130.684 251.970,130.384 251.200 C 130.083 250.430,129.265 248.810,128.566 247.600 C 127.867 246.390,126.883 244.410,126.380 243.200 C 125.877 241.990,125.198 240.685,124.871 240.300 C 124.544 239.915,124.399 239.600,124.548 239.600 C 124.698 239.600,124.529 239.035,124.172 238.345 C 123.363 236.782,122.079 233.146,121.542 230.900 C 121.318 229.965,120.940 229.200,120.701 229.200 C 120.462 229.200,120.385 229.082,120.530 228.937 C 120.675 228.792,120.614 228.457,120.394 228.193 C 119.865 227.555,117.354 215.002,116.996 211.200 C 116.840 209.550,116.635 207.840,116.540 207.400 C 116.391 206.711,116.274 193.754,116.411 193.200 C 116.623 192.348,116.777 191.082,116.989 188.450 C 117.193 185.923,118.165 179.658,119.046 175.200 C 119.155 174.650,119.347 173.525,119.474 172.700 C 119.601 171.875,119.862 171.200,120.053 171.200 C 120.244 171.200,120.400 170.851,120.400 170.424 C 120.400 169.997,120.585 169.533,120.811 169.393 C 121.036 169.254,121.180 168.928,121.129 168.670 C 121.030 168.169,122.129 164.588,122.991 162.600 C 123.714 160.932,124.173 159.456,124.079 159.100 C 124.036 158.935,124.180 158.800,124.400 158.800 C 124.620 158.800,124.800 158.612,124.800 158.383 C 124.800 158.154,125.340 156.812,126.000 155.400 C 126.660 153.988,127.200 152.732,127.200 152.609 C 127.200 152.485,127.682 151.623,128.271 150.692 C 128.860 149.761,129.838 148.061,130.443 146.913 C 131.048 145.765,131.997 144.337,132.550 143.740 C 133.104 143.143,133.466 142.507,133.355 142.327 C 133.244 142.147,133.347 142.000,133.585 142.000 C 133.823 142.000,134.235 141.505,134.500 140.900 C 134.766 140.295,135.082 139.710,135.202 139.600 C 135.322 139.490,136.044 138.590,136.807 137.600 C 137.569 136.610,138.507 135.453,138.892 135.029 C 139.276 134.606,139.695 133.931,139.822 133.529 C 139.950 133.128,140.267 132.795,140.527 132.788 C 140.787 132.781,141.765 131.766,142.700 130.532 C 143.635 129.299,144.400 128.373,144.400 128.477 C 144.400 128.580,145.705 127.408,147.300 125.874 C 148.895 124.339,150.920 122.615,151.800 122.042 C 152.680 121.469,153.670 120.716,154.000 120.370 C 154.768 119.563,159.381 116.800,159.960 116.800 C 160.202 116.800,160.403 116.665,160.406 116.500 C 160.412 116.235,161.771 115.531,165.761 113.725 C 166.400 113.436,167.106 113.200,167.330 113.200 C 167.554 113.200,168.021 112.964,168.369 112.675 C 169.059 112.102,174.686 110.111,176.588 109.767 C 177.241 109.649,178.033 109.338,178.349 109.076 C 178.665 108.814,178.989 108.657,179.069 108.726 C 179.149 108.796,180.206 108.564,181.417 108.212 C 189.932 105.737,209.078 105.472,215.008 107.748 C 215.334 107.873,215.600 107.838,215.600 107.670 C 215.600 107.236,209.678 105.365,205.200 104.384 C 201.477 103.568,187.097 102.959,183.200 103.451 M285.786 275.895 C 262.226 312.217,220.048 331.336,177.928 324.789 C 175.137 324.355,172.616 324.004,172.327 324.009 C 171.433 324.024,174.904 325.453,177.009 325.937 C 181.692 327.013,184.834 327.600,185.912 327.600 C 186.547 327.600,187.192 327.725,187.345 327.878 C 187.498 328.031,187.843 328.194,188.112 328.240 C 188.380 328.286,189.140 328.440,189.800 328.583 C 191.169 328.879,199.157 329.354,202.300 329.327 C 210.767 329.255,216.031 328.787,218.400 327.894 C 218.730 327.770,219.630 327.572,220.400 327.454 C 222.258 327.170,227.991 326.086,229.000 325.828 C 229.440 325.715,230.430 325.463,231.200 325.268 C 231.970 325.073,233.320 324.601,234.200 324.219 C 235.080 323.838,236.338 323.435,236.995 323.324 C 237.653 323.213,238.665 322.877,239.245 322.577 C 239.824 322.277,240.411 322.145,240.549 322.283 C 240.687 322.421,240.800 322.323,240.800 322.067 C 240.800 321.810,240.968 321.600,241.174 321.600 C 241.380 321.600,242.055 321.390,242.674 321.134 C 243.293 320.877,243.890 320.636,244.000 320.599 C 246.984 319.584,257.669 314.033,259.199 312.704 C 259.639 312.321,260.003 312.141,260.006 312.304 C 260.009 312.467,260.144 312.404,260.306 312.165 C 260.468 311.926,261.500 311.215,262.600 310.585 C 263.700 309.954,264.690 309.334,264.800 309.206 C 265.328 308.592,268.720 306.000,268.996 306.000 C 269.169 306.000,270.072 305.325,271.002 304.500 C 271.933 303.675,273.632 302.190,274.778 301.200 C 278.545 297.946,279.800 296.715,279.818 296.254 C 279.828 296.005,280.036 295.839,280.280 295.887 C 280.525 295.935,281.583 294.945,282.632 293.687 C 283.681 292.429,284.733 291.220,284.970 291.000 C 285.206 290.780,285.892 289.941,286.494 289.135 C 287.096 288.329,287.821 287.429,288.106 287.135 C 288.617 286.608,293.547 279.631,294.904 277.514 C 296.026 275.763,295.766 275.317,292.508 273.410 C 288.545 271.090,289.016 270.916,285.786 275.895 M155.069 319.068 C 154.435 320.294,149.618 330.905,147.201 336.400 C 146.379 338.270,143.683 344.300,141.212 349.800 C 135.234 363.101,125.152 385.593,122.880 390.693 C 120.713 395.560,120.787 395.912,124.388 397.900 C 128.131 399.966,128.424 399.845,130.216 395.500 C 131.055 393.465,131.888 391.603,132.068 391.363 C 132.247 391.123,132.279 390.812,132.139 390.673 C 132.000 390.533,132.180 390.306,132.540 390.168 C 132.901 390.029,133.096 389.755,132.974 389.558 C 132.852 389.361,132.941 389.200,133.172 389.200 C 133.402 389.200,133.706 388.480,133.846 387.600 C 133.987 386.720,134.240 386.000,134.408 386.000 C 134.576 386.000,134.835 385.516,134.983 384.924 C 135.132 384.333,135.601 383.360,136.027 382.763 C 136.452 382.165,136.800 381.513,136.800 381.313 C 136.800 381.114,137.181 380.162,137.647 379.198 C 138.112 378.234,138.525 377.255,138.563 377.023 C 138.601 376.790,139.367 375.070,140.265 373.200 C 141.162 371.330,142.033 369.350,142.200 368.800 C 142.632 367.379,144.101 364.238,144.447 363.996 C 144.717 363.806,145.916 360.788,146.138 359.740 C 146.191 359.488,146.451 359.020,146.715 358.702 C 146.979 358.384,147.309 357.556,147.448 356.862 C 147.586 356.168,147.868 355.600,148.074 355.600 C 148.279 355.600,148.336 355.420,148.200 355.200 C 148.064 354.980,148.125 354.800,148.335 354.800 C 148.545 354.800,149.394 353.045,150.221 350.900 C 151.048 348.755,151.836 346.910,151.972 346.800 C 152.109 346.690,153.015 344.710,153.986 342.400 C 154.958 340.090,156.075 337.750,156.469 337.200 C 156.863 336.650,157.244 335.840,157.315 335.400 C 157.386 334.960,157.749 334.024,158.122 333.320 C 158.495 332.616,158.800 331.761,158.800 331.420 C 158.800 331.079,158.980 330.800,159.200 330.800 C 159.420 330.800,159.600 330.480,159.600 330.089 C 159.600 329.698,159.864 329.002,160.186 328.542 C 160.508 328.081,160.658 327.591,160.519 327.453 C 160.380 327.314,160.461 327.200,160.698 327.200 C 160.935 327.200,161.627 325.933,162.234 324.384 C 163.547 321.038,163.497 320.946,159.600 319.468 C 158.170 318.925,156.697 318.359,156.327 318.208 C 155.842 318.011,155.491 318.251,155.069 319.068 " stroke="none" fill="#ac8c04" fill-rule="evenodd" data-darkreader-inline-fill="" data-darkreader-inline-stroke="" ></path><path id="path1" d="M265.025 1.832 C 264.677 2.180,264.495 2.630,264.620 2.832 C 264.745 3.035,264.649 3.200,264.406 3.200 C 264.163 3.200,264.012 3.425,264.070 3.700 C 264.128 3.975,263.850 4.687,263.453 5.282 C 263.056 5.878,262.836 6.534,262.963 6.740 C 263.091 6.947,262.962 7.206,262.676 7.316 C 262.390 7.425,261.918 8.299,261.626 9.257 C 261.335 10.216,260.850 11.567,260.548 12.260 C 260.247 12.954,260.000 13.645,260.000 13.797 C 260.000 13.949,259.642 14.528,259.205 15.084 C 258.768 15.639,258.509 16.253,258.629 16.447 C 258.749 16.641,258.657 16.800,258.424 16.800 C 258.191 16.800,258.029 16.935,258.064 17.100 C 258.098 17.265,258.023 17.670,257.897 18.000 C 257.770 18.330,257.353 19.500,256.969 20.600 C 256.586 21.700,255.996 22.825,255.660 23.100 C 255.323 23.375,255.176 23.600,255.334 23.600 C 255.492 23.600,255.309 24.185,254.928 24.900 C 254.547 25.615,254.273 26.335,254.318 26.500 C 254.363 26.665,254.209 26.800,253.976 26.800 C 253.743 26.800,253.664 26.980,253.800 27.200 C 253.936 27.420,253.846 27.600,253.600 27.600 C 253.354 27.600,253.264 27.780,253.400 28.000 C 253.536 28.220,253.427 28.400,253.157 28.400 C 252.887 28.400,252.779 28.513,252.917 28.651 C 253.055 28.789,252.898 29.424,252.568 30.062 C 252.237 30.701,252.076 31.399,252.209 31.615 C 252.342 31.830,252.192 32.105,251.875 32.226 C 251.327 32.437,250.361 34.379,249.401 37.200 C 249.364 37.310,249.123 37.907,248.866 38.526 C 248.610 39.145,248.400 39.798,248.400 39.977 C 248.400 40.156,248.141 40.517,247.824 40.780 C 247.507 41.043,247.346 41.515,247.467 41.829 C 247.587 42.143,247.476 42.400,247.219 42.400 C 246.963 42.400,246.864 42.580,247.000 42.800 C 247.136 43.020,247.057 43.200,246.824 43.200 C 246.591 43.200,246.400 43.465,246.400 43.790 C 246.400 44.114,245.860 45.559,245.200 47.000 C 244.540 48.441,244.000 49.796,244.000 50.010 C 244.000 50.225,243.826 50.400,243.613 50.400 C 243.399 50.400,243.329 50.670,243.455 51.000 C 243.586 51.340,243.465 51.600,243.176 51.600 C 242.896 51.600,242.775 51.708,242.907 51.840 C 243.039 51.972,242.631 53.034,242.000 54.200 C 241.369 55.366,240.961 56.428,241.093 56.560 C 241.225 56.692,241.129 56.800,240.879 56.800 C 240.629 56.800,240.529 57.070,240.655 57.400 C 240.782 57.730,240.676 58.000,240.419 58.000 C 240.163 58.000,240.064 58.180,240.200 58.400 C 240.336 58.620,240.278 58.800,240.072 58.800 C 239.709 58.800,238.698 60.861,238.542 61.921 C 238.499 62.207,238.180 62.876,237.832 63.407 C 237.485 63.938,237.200 64.591,237.200 64.860 C 237.200 65.128,236.588 66.530,235.841 67.974 C 235.094 69.418,234.471 70.738,234.457 70.907 C 234.443 71.076,234.064 72.044,233.616 73.058 C 233.167 74.072,232.800 75.239,232.800 75.651 C 232.800 76.063,232.590 76.400,232.333 76.400 C 232.077 76.400,231.985 76.518,232.130 76.663 C 232.275 76.808,232.179 77.184,231.917 77.500 C 231.656 77.815,231.483 78.687,231.533 79.437 C 231.584 80.186,231.536 80.800,231.428 80.800 C 230.530 80.800,226.662 78.960,225.746 78.098 C 225.116 77.504,224.510 76.998,224.400 76.974 C 224.290 76.949,223.579 76.649,222.821 76.307 C 222.062 75.966,221.207 75.776,220.921 75.886 C 220.634 75.996,220.400 75.904,220.400 75.683 C 220.400 75.229,216.577 74.186,215.500 74.346 C 215.115 74.403,214.800 74.289,214.800 74.092 C 214.800 73.895,214.395 73.769,213.900 73.812 C 213.405 73.855,212.814 73.746,212.588 73.569 C 212.119 73.203,210.618 72.871,208.000 72.552 C 207.010 72.431,205.660 72.239,205.000 72.126 C 204.340 72.012,203.170 71.860,202.400 71.788 C 201.630 71.717,201.000 71.628,201.000 71.592 C 201.000 71.364,194.425 71.104,189.000 71.118 C 183.387 71.132,177.000 71.388,177.000 71.598 C 177.000 71.638,176.115 71.738,175.033 71.820 C 173.951 71.903,172.961 72.112,172.833 72.285 C 172.705 72.458,172.060 72.628,171.400 72.663 C 170.740 72.697,169.750 72.822,169.200 72.940 C 167.528 73.298,166.600 73.535,166.600 73.604 C 166.600 73.640,166.032 73.728,165.337 73.801 C 164.643 73.873,163.698 74.134,163.237 74.380 C 162.777 74.626,162.400 74.710,162.400 74.565 C 162.400 74.420,162.138 74.520,161.818 74.785 C 161.497 75.051,161.079 75.173,160.889 75.055 C 160.698 74.937,160.106 75.068,159.571 75.345 C 159.037 75.622,158.510 75.868,158.400 75.892 C 156.799 76.235,156.000 76.552,156.000 76.843 C 156.000 77.040,155.751 77.200,155.446 77.200 C 154.486 77.200,150.613 78.541,150.306 78.980 C 150.144 79.211,150.009 79.254,150.006 79.075 C 150.003 78.896,149.145 79.179,148.100 79.703 C 144.071 81.724,142.438 82.485,142.223 82.443 C 142.100 82.420,141.633 82.767,141.185 83.215 C 140.737 83.663,140.170 83.905,139.924 83.753 C 139.669 83.596,139.587 83.656,139.734 83.893 C 139.960 84.260,139.344 84.598,137.708 85.005 C 137.437 85.072,136.930 85.413,136.579 85.763 C 136.229 86.114,135.705 86.400,135.414 86.400 C 135.123 86.400,134.782 86.670,134.655 87.000 C 134.529 87.330,134.149 87.600,133.813 87.600 C 133.476 87.600,133.200 87.780,133.200 88.000 C 133.200 88.220,132.930 88.400,132.600 88.400 C 132.270 88.400,132.000 88.580,132.000 88.800 C 132.000 89.020,131.775 89.201,131.500 89.202 C 131.225 89.203,130.435 89.733,129.745 90.380 C 129.055 91.027,128.384 91.451,128.254 91.321 C 128.125 91.191,127.905 91.381,127.767 91.743 C 127.628 92.104,127.270 92.400,126.971 92.400 C 126.673 92.400,126.235 92.760,126.000 93.200 C 125.765 93.640,125.313 94.000,124.997 94.000 C 124.325 94.000,112.400 105.737,112.400 106.399 C 112.400 106.646,112.228 106.741,112.018 106.611 C 111.807 106.481,111.313 106.867,110.919 107.468 C 110.525 108.069,109.842 108.952,109.401 109.429 C 108.347 110.570,107.144 112.082,106.400 113.198 C 106.070 113.693,105.575 114.333,105.300 114.620 C 105.025 114.908,104.800 115.301,104.800 115.493 C 104.800 115.686,104.170 116.531,103.400 117.372 C 102.630 118.213,102.000 119.129,102.000 119.407 C 102.000 119.686,101.704 120.028,101.343 120.167 C 100.981 120.305,100.791 120.524,100.919 120.652 C 101.048 120.781,100.723 121.349,100.198 121.916 C 99.673 122.482,99.322 123.074,99.419 123.231 C 99.516 123.388,99.322 123.621,98.989 123.749 C 98.483 123.943,98.466 124.117,98.888 124.792 C 99.463 125.712,98.956 126.913,97.905 127.120 C 97.570 127.186,95.249 126.038,92.748 124.569 C 90.246 123.100,87.030 121.224,85.600 120.400 C 84.170 119.576,81.470 118.009,79.600 116.919 C 77.730 115.828,74.220 113.797,71.800 112.405 C 69.380 111.013,66.590 109.391,65.600 108.800 C 64.610 108.210,62.180 106.792,60.200 105.649 C 35.281 91.268,33.393 90.127,33.267 89.385 C 33.194 88.953,32.571 88.150,31.882 87.600 C 31.194 87.050,30.785 86.870,30.974 87.200 C 31.163 87.530,30.924 87.395,30.443 86.900 C 29.649 86.083,29.316 85.931,28.545 86.034 C 28.404 86.053,28.150 85.842,27.979 85.566 C 27.378 84.594,25.595 84.876,25.331 85.986 C 25.198 86.544,24.912 87.225,24.696 87.500 C 24.479 87.775,24.442 88.000,24.613 88.000 C 24.784 88.000,24.642 88.315,24.297 88.700 C 23.550 89.534,21.532 94.000,21.902 94.000 C 22.044 94.000,21.944 94.216,21.680 94.480 C 21.416 94.744,21.200 95.374,21.200 95.880 C 21.200 96.386,21.051 96.800,20.868 96.800 C 20.570 96.800,18.672 100.457,18.550 101.268 C 18.523 101.450,18.464 101.645,18.419 101.700 C 18.375 101.755,18.272 102.157,18.191 102.593 C 18.110 103.029,17.853 103.449,17.619 103.527 C 17.386 103.605,17.297 103.833,17.421 104.034 C 17.545 104.235,17.427 104.400,17.157 104.400 C 16.887 104.400,16.776 104.510,16.911 104.644 C 17.045 104.778,16.805 105.540,16.377 106.338 C 15.950 107.136,15.600 108.106,15.600 108.494 C 15.600 108.882,15.409 109.200,15.176 109.200 C 14.943 109.200,14.864 109.380,15.000 109.600 C 15.136 109.820,15.027 110.000,14.757 110.000 C 14.487 110.000,14.387 110.120,14.534 110.268 C 14.681 110.415,14.503 110.865,14.139 111.268 C 13.774 111.670,13.616 112.000,13.787 112.000 C 13.958 112.000,13.869 112.276,13.590 112.613 C 12.994 113.330,13.541 113.860,16.274 115.216 C 17.195 115.673,18.005 116.171,18.074 116.323 C 18.143 116.475,18.830 116.923,19.600 117.319 C 20.370 117.714,21.765 118.472,22.700 119.003 C 23.635 119.534,24.400 119.858,24.400 119.723 C 24.400 119.588,24.715 119.839,25.100 120.282 C 25.485 120.724,26.205 121.213,26.700 121.370 C 27.195 121.526,27.600 121.832,27.600 122.051 C 27.600 122.269,27.757 122.350,27.948 122.232 C 28.140 122.113,28.703 122.369,29.200 122.800 C 29.697 123.231,30.260 123.487,30.452 123.368 C 30.643 123.250,30.800 123.343,30.800 123.576 C 30.800 123.809,31.070 124.000,31.400 124.000 C 31.730 124.000,32.000 124.191,32.000 124.424 C 32.000 124.657,32.181 124.735,32.403 124.598 C 32.624 124.461,32.913 124.630,33.045 124.972 C 33.176 125.315,33.445 125.496,33.642 125.374 C 33.839 125.252,34.000 125.331,34.000 125.549 C 34.000 125.877,35.232 126.481,36.000 126.530 C 36.110 126.537,36.438 126.781,36.729 127.071 C 37.019 127.362,37.615 127.600,38.052 127.600 C 38.489 127.600,38.739 127.775,38.607 127.988 C 38.475 128.202,38.825 128.491,39.384 128.632 C 39.943 128.772,40.400 129.033,40.400 129.212 C 40.400 129.390,40.952 129.658,41.627 129.806 C 42.302 129.954,42.951 130.327,43.069 130.635 C 43.187 130.943,43.445 131.096,43.642 130.974 C 43.839 130.852,44.000 130.931,44.000 131.149 C 44.000 131.368,44.405 131.671,44.900 131.823 C 45.395 131.975,46.126 132.441,46.524 132.859 C 46.922 133.276,47.417 133.513,47.624 133.385 C 47.831 133.257,48.000 133.354,48.000 133.600 C 48.000 133.846,48.156 133.951,48.347 133.833 C 48.538 133.715,49.708 134.329,50.947 135.197 C 52.186 136.065,53.203 136.646,53.206 136.488 C 53.209 136.329,53.344 136.389,53.506 136.620 C 53.970 137.284,58.283 139.583,58.555 139.311 C 58.690 139.177,58.800 139.287,58.800 139.557 C 58.800 139.827,58.980 139.936,59.200 139.800 C 59.420 139.664,59.600 139.739,59.600 139.966 C 59.600 140.405,61.993 141.821,62.500 141.682 C 62.665 141.637,62.800 141.780,62.800 142.000 C 62.800 142.220,62.935 142.356,63.100 142.302 C 63.391 142.208,66.397 143.912,66.800 144.400 C 67.309 145.017,69.906 146.361,70.139 146.128 C 70.282 145.984,70.400 146.087,70.400 146.357 C 70.400 146.627,70.565 146.745,70.768 146.620 C 70.970 146.495,71.407 146.664,71.739 146.996 C 72.071 147.328,72.536 147.600,72.771 147.600 C 73.007 147.600,73.200 147.780,73.200 148.000 C 73.200 148.220,73.455 148.400,73.767 148.400 C 74.078 148.400,74.393 148.542,74.467 148.715 C 74.540 148.888,75.590 149.519,76.800 150.116 C 79.158 151.281,81.275 152.469,81.600 152.809 C 82.153 153.388,84.004 154.378,84.028 154.109 C 84.044 153.939,84.201 154.160,84.379 154.600 C 84.556 155.040,84.575 155.580,84.421 155.800 C 84.267 156.020,84.119 156.634,84.091 157.164 C 84.063 157.694,83.892 158.234,83.711 158.364 C 83.531 158.494,83.324 159.230,83.253 160.000 C 83.182 160.770,82.999 161.580,82.847 161.800 C 82.694 162.020,82.515 162.740,82.448 163.400 C 82.382 164.060,82.073 165.583,81.763 166.784 C 81.454 167.985,81.199 169.515,81.198 170.184 C 81.197 170.853,81.030 172.030,80.828 172.800 C 80.328 174.701,79.934 177.803,79.899 180.100 C 79.884 181.145,79.751 182.000,79.605 182.000 C 79.459 182.000,79.338 182.585,79.336 183.300 C 79.334 184.015,79.176 186.130,78.985 188.000 C 78.431 193.417,78.601 209.595,79.211 209.599 C 79.328 209.599,79.382 210.325,79.333 211.210 C 79.283 212.096,79.402 212.722,79.598 212.601 C 79.794 212.480,79.851 213.009,79.725 213.784 C 79.600 214.556,79.689 215.685,79.923 216.293 C 80.157 216.902,80.444 218.210,80.562 219.200 C 80.679 220.190,80.870 221.540,80.987 222.200 C 81.223 223.525,81.710 226.087,81.787 226.400 C 81.814 226.510,81.994 227.320,82.187 228.200 C 82.573 229.961,82.647 230.257,82.811 230.700 C 82.872 230.865,82.964 231.180,83.015 231.400 C 83.066 231.620,83.143 231.890,83.187 232.000 C 83.231 232.110,83.314 232.560,83.373 233.000 C 83.579 234.558,84.532 237.200,84.887 237.200 C 85.085 237.200,85.131 237.388,84.989 237.618 C 84.847 237.847,84.942 238.289,85.200 238.600 C 85.458 238.911,85.565 239.334,85.437 239.540 C 85.237 239.863,85.837 242.036,86.667 244.000 C 86.807 244.330,86.972 244.780,87.035 245.000 C 87.229 245.678,89.435 250.890,90.422 253.000 C 90.937 254.100,91.322 255.135,91.279 255.300 C 91.235 255.465,91.359 255.600,91.553 255.600 C 91.860 255.600,92.035 255.976,92.342 257.297 C 92.576 258.304,96.142 264.800,96.460 264.800 C 96.673 264.800,96.745 264.965,96.620 265.168 C 96.495 265.370,96.709 265.852,97.096 266.239 C 97.483 266.626,97.824 267.046,97.854 267.171 C 98.124 268.318,98.555 269.200,98.847 269.200 C 99.041 269.200,99.200 269.476,99.200 269.813 C 99.200 270.149,99.470 270.529,99.800 270.655 C 100.130 270.782,100.400 271.136,100.400 271.443 C 100.400 271.749,100.559 272.000,100.753 272.000 C 100.948 272.000,101.215 272.315,101.347 272.700 C 101.548 273.284,102.896 275.149,104.805 277.483 C 105.022 277.749,105.200 278.071,105.200 278.200 C 105.200 278.498,105.864 279.295,107.500 280.959 C 108.215 281.686,108.800 282.468,108.800 282.698 C 108.800 282.927,109.070 283.218,109.400 283.345 C 109.730 283.471,110.000 283.793,110.000 284.059 C 110.000 284.325,110.589 285.096,111.309 285.772 C 112.029 286.447,112.930 287.490,113.311 288.089 C 113.692 288.687,114.804 289.767,115.782 290.489 C 116.760 291.210,117.750 292.324,117.982 292.965 C 118.214 293.606,118.524 294.009,118.672 293.861 C 118.819 293.714,120.140 294.810,121.607 296.297 C 125.751 300.499,128.992 303.275,129.343 302.923 C 129.459 302.807,129.416 303.137,129.248 303.656 C 128.525 305.881,127.897 307.200,127.561 307.200 C 127.362 307.200,127.238 307.335,127.285 307.500 C 127.332 307.665,127.145 308.205,126.871 308.700 C 126.596 309.195,126.474 309.600,126.599 309.600 C 126.724 309.600,126.281 310.635,125.614 311.900 C 124.947 313.165,124.401 314.515,124.401 314.900 C 124.400 315.285,124.190 315.600,123.933 315.600 C 123.677 315.600,123.582 315.715,123.723 315.856 C 123.988 316.121,123.035 318.073,122.042 319.300 C 121.731 319.685,121.639 320.003,121.838 320.006 C 122.037 320.009,121.966 320.161,121.680 320.342 C 121.394 320.524,121.131 321.061,121.095 321.536 C 121.059 322.011,120.877 322.400,120.691 322.400 C 120.505 322.400,120.456 322.568,120.583 322.772 C 120.709 322.977,120.627 323.260,120.400 323.400 C 120.173 323.540,120.079 323.804,120.191 323.986 C 120.304 324.167,120.115 324.424,119.772 324.555 C 119.430 324.687,119.252 324.960,119.377 325.163 C 119.502 325.366,119.416 325.595,119.185 325.672 C 118.954 325.749,118.734 326.214,118.697 326.706 C 118.660 327.198,118.508 327.600,118.358 327.600 C 118.120 327.600,117.495 329.430,117.641 329.698 C 117.672 329.754,117.137 330.750,116.452 331.911 C 115.768 333.073,115.108 334.585,114.987 335.273 C 114.866 335.960,114.414 337.018,113.983 337.623 C 113.553 338.228,113.200 339.011,113.200 339.362 C 113.200 339.713,113.009 340.000,112.776 340.000 C 112.543 340.000,112.456 340.168,112.583 340.372 C 112.709 340.577,112.627 340.860,112.400 341.000 C 112.173 341.140,112.091 341.423,112.217 341.628 C 112.344 341.832,112.271 342.000,112.055 342.000 C 111.840 342.000,111.545 342.540,111.400 343.200 C 111.255 343.860,110.983 344.400,110.795 344.400 C 110.440 344.400,109.783 345.977,109.921 346.500 C 109.964 346.665,109.826 346.800,109.613 346.800 C 109.399 346.800,109.329 347.070,109.455 347.400 C 109.582 347.730,109.501 348.000,109.275 348.000 C 109.049 348.000,108.748 348.528,108.606 349.172 C 108.464 349.817,108.090 350.559,107.774 350.821 C 107.458 351.083,107.200 351.625,107.200 352.025 C 107.200 352.425,107.017 352.866,106.793 353.004 C 106.570 353.142,106.491 353.423,106.617 353.628 C 106.744 353.832,106.657 354.000,106.424 354.000 C 106.191 354.000,106.031 354.135,106.070 354.300 C 106.164 354.707,103.770 360.097,101.713 364.109 C 101.400 364.720,101.056 365.710,100.948 366.309 C 100.841 366.909,100.582 367.460,100.374 367.534 C 100.166 367.608,100.097 367.833,100.221 368.034 C 100.345 368.235,100.246 368.400,100.000 368.400 C 99.754 368.400,99.664 368.580,99.800 368.800 C 99.936 369.020,99.857 369.200,99.624 369.200 C 99.391 369.200,99.238 369.335,99.285 369.500 C 99.332 369.665,99.158 370.181,98.899 370.647 C 98.640 371.113,98.557 371.637,98.714 371.812 C 98.871 371.986,98.775 371.999,98.500 371.841 C 98.017 371.563,97.829 372.011,97.970 373.100 C 98.006 373.375,97.837 373.600,97.594 373.600 C 97.351 373.600,97.264 373.780,97.400 374.000 C 97.536 374.220,97.457 374.400,97.224 374.400 C 96.991 374.400,96.796 374.715,96.791 375.100 C 96.786 375.485,96.445 376.239,96.033 376.775 C 95.620 377.312,95.385 378.016,95.509 378.341 C 95.645 378.693,95.566 378.826,95.313 378.670 C 94.844 378.380,94.414 379.621,94.405 381.292 C 94.401 382.126,94.637 382.444,95.400 382.636 C 95.950 382.774,96.400 383.058,96.400 383.267 C 96.400 383.476,96.580 383.536,96.800 383.400 C 97.020 383.264,97.200 383.301,97.200 383.482 C 97.200 383.663,97.875 384.132,98.700 384.524 C 100.315 385.291,104.616 387.861,106.094 388.941 C 107.567 390.018,111.668 392.400,112.048 392.400 C 112.242 392.400,112.400 392.580,112.400 392.800 C 112.400 393.020,112.751 393.200,113.180 393.200 C 113.609 393.200,114.144 393.515,114.368 393.900 C 114.592 394.285,114.781 394.467,114.788 394.304 C 114.795 394.141,115.115 394.278,115.500 394.607 C 115.885 394.937,116.380 395.240,116.600 395.281 C 116.820 395.322,117.342 395.674,117.761 396.064 C 118.179 396.453,118.674 396.678,118.861 396.563 C 119.047 396.447,119.200 396.550,119.200 396.790 C 119.200 397.098,119.467 397.089,120.100 396.760 C 121.335 396.117,121.311 396.167,120.783 395.322 C 120.274 394.506,120.348 394.305,124.797 384.400 C 125.933 381.870,127.949 377.370,129.275 374.400 C 130.602 371.430,132.456 367.290,133.394 365.200 C 134.333 363.110,137.037 357.080,139.403 351.800 C 141.770 346.520,144.554 340.310,145.591 338.000 C 146.627 335.690,149.145 330.065,151.186 325.500 C 153.807 319.635,155.087 317.198,155.548 317.194 C 157.083 317.180,163.200 320.106,163.200 320.855 C 163.200 321.333,163.486 321.600,164.000 321.600 C 164.440 321.600,164.800 321.810,164.800 322.067 C 164.800 322.323,164.918 322.415,165.063 322.270 C 165.208 322.125,165.527 322.174,165.773 322.378 C 166.019 322.582,166.665 322.810,167.210 322.884 C 167.754 322.959,168.410 323.152,168.668 323.314 C 168.925 323.475,169.409 323.334,169.743 323.000 C 170.286 322.456,170.849 322.495,175.075 323.364 C 217.245 332.037,261.274 312.420,286.135 273.883 C 288.779 269.784,288.146 269.955,292.161 272.260 C 295.452 274.151,296.086 274.688,295.861 275.396 C 295.696 275.919,296.596 276.800,297.296 276.800 C 297.600 276.800,298.224 277.149,298.682 277.576 C 299.140 278.003,299.624 278.243,299.757 278.109 C 299.891 277.976,300.000 278.087,300.000 278.357 C 300.000 278.627,300.180 278.736,300.400 278.600 C 300.620 278.464,300.800 278.540,300.800 278.769 C 300.800 278.998,301.250 279.298,301.800 279.436 C 302.350 279.574,302.800 279.866,302.800 280.086 C 302.800 280.306,303.070 280.382,303.400 280.255 C 303.763 280.116,304.000 280.254,304.000 280.605 C 304.000 280.924,304.450 281.298,305.000 281.436 C 305.550 281.574,306.000 281.820,306.000 281.983 C 306.000 282.145,306.765 282.616,307.700 283.028 C 308.635 283.441,309.490 283.873,309.600 283.989 C 309.995 284.406,311.420 285.220,312.500 285.645 C 313.105 285.883,313.600 286.251,313.600 286.463 C 313.600 286.674,313.765 286.745,313.966 286.621 C 314.167 286.497,314.392 286.538,314.466 286.712 C 314.706 287.279,317.106 288.800,317.762 288.800 C 318.113 288.800,318.400 288.975,318.400 289.188 C 318.400 289.402,319.435 290.062,320.700 290.656 C 321.965 291.250,323.060 291.887,323.134 292.071 C 323.208 292.254,323.433 292.303,323.634 292.179 C 323.835 292.055,324.000 292.134,324.000 292.355 C 324.000 292.794,325.171 293.503,328.100 294.840 C 329.145 295.317,330.000 295.859,330.000 296.045 C 330.000 296.549,333.050 298.011,333.415 297.683 C 333.587 297.527,333.621 297.590,333.489 297.822 C 333.357 298.054,334.093 298.684,335.125 299.222 C 336.156 299.760,337.090 300.311,337.200 300.446 C 337.436 300.737,340.909 302.524,341.200 302.505 C 341.310 302.497,342.113 303.056,342.985 303.746 C 343.857 304.436,344.428 304.730,344.255 304.400 C 344.079 304.063,344.192 304.107,344.514 304.500 C 344.830 304.885,345.293 305.200,345.544 305.200 C 345.795 305.200,346.000 305.362,346.000 305.561 C 346.000 305.759,346.569 306.120,347.264 306.363 C 347.960 306.605,349.085 307.211,349.764 307.710 C 350.444 308.208,351.540 308.883,352.200 309.208 C 352.860 309.534,353.638 310.025,353.929 310.300 C 354.219 310.575,354.714 310.800,355.029 310.800 C 355.343 310.800,355.600 310.991,355.600 311.224 C 355.600 311.457,355.780 311.536,356.000 311.400 C 356.220 311.264,356.400 311.354,356.400 311.600 C 356.400 311.846,356.561 311.948,356.758 311.826 C 356.955 311.704,357.224 311.885,357.355 312.228 C 357.487 312.570,357.776 312.739,357.997 312.602 C 358.219 312.465,358.400 312.524,358.400 312.734 C 358.400 313.437,359.571 313.572,360.202 312.941 C 360.681 312.462,360.720 312.186,360.369 311.763 C 359.697 310.953,360.016 310.029,364.786 299.000 C 370.857 284.960,370.927 284.792,370.754 284.630 C 370.670 284.550,367.810 282.877,364.400 280.912 C 360.990 278.947,356.445 276.318,354.300 275.070 C 344.589 269.418,342.461 268.182,340.400 266.996 C 339.190 266.300,334.690 263.694,330.400 261.206 C 326.110 258.719,320.980 255.749,319.000 254.608 C 317.020 253.467,313.780 251.583,311.800 250.423 C 309.820 249.262,307.570 247.956,306.800 247.521 C 301.947 244.778,300.401 243.786,300.405 243.417 C 300.407 243.188,300.678 242.010,301.006 240.800 C 315.341 187.932,298.105 129.337,258.900 97.666 C 254.802 94.355,254.523 96.312,261.190 81.600 C 262.336 79.070,265.080 72.950,267.288 68.000 C 269.495 63.050,272.191 57.020,273.279 54.600 C 274.368 52.180,276.220 48.040,277.396 45.400 C 278.572 42.760,280.469 38.530,281.611 36.000 C 282.754 33.470,284.285 30.050,285.013 28.400 C 285.742 26.750,287.161 23.600,288.167 21.400 C 290.413 16.488,290.415 16.671,288.100 15.346 C 274.725 7.688,271.972 5.816,272.596 4.806 C 272.706 4.629,272.517 4.377,272.177 4.246 C 271.762 4.087,271.651 4.172,271.839 4.505 C 271.993 4.777,271.533 4.417,270.816 3.704 C 270.099 2.991,269.352 2.506,269.156 2.627 C 268.960 2.748,268.800 2.674,268.800 2.463 C 268.800 2.117,266.744 1.200,265.969 1.200 C 265.797 1.200,265.373 1.485,265.025 1.832 M202.030 103.042 C 211.391 104.636,217.361 106.616,218.294 108.436 C 218.566 108.966,218.791 109.269,218.794 109.108 C 218.797 108.947,219.587 109.255,220.549 109.792 C 221.511 110.329,222.421 110.646,222.571 110.496 C 222.721 110.346,222.982 110.447,223.151 110.721 C 223.320 110.995,223.846 111.293,224.319 111.384 C 224.793 111.476,225.578 111.921,226.065 112.375 C 226.552 112.829,227.277 113.200,227.675 113.200 C 228.074 113.200,228.400 113.391,228.400 113.624 C 228.400 113.857,228.559 113.949,228.753 113.829 C 228.947 113.709,229.534 113.923,230.058 114.305 C 231.609 115.438,232.557 116.009,233.300 116.258 C 233.685 116.388,234.000 116.611,234.000 116.756 C 234.000 116.900,234.675 117.374,235.500 117.809 C 236.325 118.244,237.517 119.050,238.149 119.600 C 238.782 120.150,239.451 120.557,239.638 120.504 C 239.824 120.451,240.168 120.766,240.402 121.204 C 240.636 121.642,241.092 122.000,241.414 122.000 C 241.736 122.000,242.000 122.180,242.000 122.400 C 242.000 122.620,242.253 122.800,242.561 122.800 C 242.870 122.800,243.693 123.475,244.391 124.300 C 245.089 125.125,245.526 125.543,245.363 125.229 C 245.199 124.915,246.015 125.635,247.176 126.829 C 248.336 128.023,250.212 129.880,251.343 130.956 C 252.474 132.032,253.130 132.783,252.800 132.626 C 252.470 132.468,252.605 132.697,253.100 133.134 C 253.595 133.571,254.000 134.135,254.000 134.388 C 254.000 134.640,254.180 134.736,254.400 134.600 C 254.620 134.464,254.800 134.552,254.800 134.795 C 254.800 135.039,255.276 135.680,255.858 136.219 C 256.441 136.759,256.756 137.203,256.558 137.206 C 256.361 137.209,256.390 137.344,256.621 137.506 C 256.853 137.668,257.452 138.475,257.954 139.300 C 258.455 140.125,258.986 140.801,259.133 140.801 C 259.280 140.802,259.934 141.792,260.586 143.001 C 261.238 144.211,261.913 145.200,262.086 145.200 C 262.259 145.200,262.400 145.470,262.400 145.800 C 262.400 146.130,262.760 146.760,263.200 147.200 C 263.640 147.640,263.882 148.000,263.738 148.000 C 263.594 148.000,263.819 148.379,264.238 148.842 C 264.657 149.305,264.942 149.762,264.871 149.858 C 264.800 149.954,265.330 151.060,266.049 152.316 C 266.767 153.572,267.398 154.852,267.451 155.160 C 267.504 155.468,267.695 155.828,267.877 155.960 C 268.058 156.092,268.547 157.190,268.963 158.400 C 269.379 159.610,269.998 161.140,270.339 161.800 C 270.679 162.460,270.978 163.180,271.002 163.400 C 271.050 163.839,271.466 164.957,272.045 166.200 C 272.249 166.640,272.503 167.405,272.608 167.900 C 273.070 170.066,273.169 170.426,273.415 170.824 C 273.558 171.056,273.733 171.640,273.803 172.123 C 273.874 172.605,274.110 173.571,274.329 174.270 C 274.548 174.968,274.623 175.643,274.497 175.770 C 274.370 175.896,274.480 176.000,274.740 176.000 C 275.000 176.000,275.213 176.495,275.214 177.100 C 275.217 179.621,275.266 180.000,275.587 180.000 C 275.773 180.000,275.831 180.360,275.716 180.800 C 275.601 181.240,275.682 181.600,275.896 181.600 C 276.266 181.600,276.337 182.232,276.358 185.700 C 276.363 186.525,276.551 187.200,276.775 187.200 C 276.998 187.200,277.177 187.875,277.170 188.700 C 277.164 189.525,277.262 191.190,277.389 192.400 C 277.708 195.457,277.878 206.113,277.616 206.600 C 277.497 206.820,277.357 207.810,277.304 208.800 C 277.252 209.790,277.110 211.320,276.989 212.200 C 276.868 213.080,276.694 214.520,276.604 215.400 C 276.513 216.280,276.343 217.540,276.226 218.200 C 276.110 218.860,275.966 219.760,275.907 220.200 C 275.848 220.640,275.678 221.093,275.529 221.206 C 275.380 221.319,275.143 222.219,275.003 223.206 C 274.676 225.509,274.483 226.600,274.403 226.600 C 274.322 226.600,274.001 227.948,273.831 229.000 C 273.760 229.440,273.665 229.800,273.620 229.800 C 273.576 229.800,273.456 230.160,273.355 230.600 C 273.253 231.040,273.127 231.580,273.074 231.800 C 273.021 232.020,272.837 232.425,272.665 232.700 C 272.493 232.975,272.456 233.368,272.583 233.572 C 272.709 233.777,272.618 234.065,272.379 234.213 C 272.141 234.360,272.046 234.742,272.168 235.061 C 272.291 235.380,272.232 235.543,272.037 235.423 C 271.843 235.303,271.577 235.483,271.446 235.823 C 271.285 236.243,271.368 236.346,271.705 236.144 C 271.997 235.968,271.962 236.140,271.618 236.564 C 271.297 236.958,271.000 237.488,270.957 237.740 C 270.914 237.993,270.652 238.740,270.373 239.400 C 270.095 240.060,269.837 240.690,269.800 240.800 C 269.763 240.910,269.524 241.503,269.270 242.118 C 269.015 242.732,268.695 243.677,268.560 244.218 C 268.424 244.758,268.142 245.200,267.933 245.200 C 267.724 245.200,267.673 245.394,267.819 245.631 C 267.965 245.867,267.702 246.418,267.234 246.854 C 266.765 247.291,266.479 247.805,266.598 247.996 C 266.716 248.188,266.627 248.460,266.399 248.601 C 265.834 248.950,263.910 252.797,264.293 252.812 C 264.462 252.819,264.285 253.008,263.900 253.232 C 263.515 253.456,263.200 253.901,263.200 254.220 C 263.200 254.539,263.009 254.800,262.776 254.800 C 262.543 254.800,262.464 254.980,262.600 255.200 C 262.736 255.420,262.657 255.600,262.424 255.600 C 262.191 255.600,262.000 255.870,262.000 256.200 C 262.000 256.530,261.820 256.800,261.600 256.800 C 261.380 256.800,261.200 256.992,261.200 257.227 C 261.200 257.461,260.750 258.243,260.200 258.964 C 259.650 259.686,259.200 260.484,259.200 260.738 C 259.200 260.992,259.022 261.200,258.805 261.200 C 258.588 261.200,257.932 261.965,257.348 262.900 C 256.763 263.835,255.771 265.066,255.143 265.636 C 254.514 266.205,254.000 266.801,254.000 266.960 C 254.000 267.357,248.153 273.082,245.992 274.800 C 245.024 275.570,243.968 276.506,243.645 276.880 C 243.322 277.253,242.909 277.468,242.729 277.356 C 242.548 277.244,242.400 277.331,242.400 277.549 C 242.400 277.768,242.060 278.054,241.645 278.186 C 241.229 278.318,240.444 278.825,239.900 279.313 C 238.579 280.497,237.668 281.093,236.042 281.838 C 235.295 282.180,234.422 282.721,234.102 283.041 C 233.633 283.510,231.307 284.730,230.400 284.984 C 229.104 285.345,228.400 285.728,228.400 286.070 C 228.400 286.298,228.121 286.378,227.779 286.247 C 227.374 286.092,227.258 286.170,227.445 286.473 C 227.634 286.778,227.514 286.852,227.091 286.690 C 226.740 286.555,226.392 286.625,226.319 286.844 C 226.245 287.064,225.919 287.305,225.593 287.381 C 224.097 287.727,223.200 288.121,223.200 288.434 C 223.200 288.622,222.930 288.671,222.600 288.545 C 222.270 288.418,222.000 288.502,222.000 288.732 C 222.000 288.962,221.685 289.137,221.300 289.121 C 220.915 289.104,220.060 289.320,219.400 289.599 C 218.740 289.879,217.666 290.176,217.014 290.260 C 216.362 290.344,215.665 290.575,215.465 290.775 C 215.266 290.974,214.854 291.042,214.551 290.926 C 214.248 290.810,214.000 290.908,214.000 291.145 C 214.000 291.381,213.730 291.471,213.400 291.345 C 213.070 291.218,212.800 291.333,212.800 291.600 C 212.800 291.869,212.530 291.982,212.197 291.854 C 211.865 291.727,211.100 291.811,210.497 292.042 C 209.893 292.273,208.590 292.550,207.600 292.658 C 206.610 292.765,205.530 292.953,205.200 293.076 C 202.212 294.183,183.561 293.267,179.229 291.800 C 177.124 291.087,175.843 290.982,176.800 291.600 C 178.422 292.648,173.644 291.860,169.575 290.409 C 111.973 269.861,88.540 192.412,124.007 139.800 C 138.979 117.590,155.597 107.096,182.800 102.672 C 185.712 102.198,198.521 102.445,202.030 103.042 " stroke="none" fill="#fccc04" fill-rule="evenodd" data-darkreader-inline-fill="" data-darkreader-inline-stroke="" ></path><path id="path2" d="M285.665 28.217 C 284.995 29.688,285.123 30.002,285.847 28.665 C 286.186 28.040,286.388 27.454,286.296 27.363 C 286.205 27.271,285.921 27.656,285.665 28.217 M278.465 44.217 C 277.795 45.688,277.923 46.002,278.647 44.665 C 278.986 44.040,279.188 43.454,279.096 43.363 C 279.005 43.271,278.721 43.656,278.465 44.217 M276.865 47.817 C 276.195 49.288,276.323 49.602,277.047 48.265 C 277.386 47.640,277.588 47.054,277.496 46.963 C 277.405 46.871,277.121 47.256,276.865 47.817 M273.665 55.017 C 272.995 56.488,273.123 56.802,273.847 55.465 C 274.186 54.840,274.388 54.254,274.296 54.163 C 274.205 54.071,273.921 54.456,273.665 55.017 M270.065 63.017 C 269.395 64.488,269.523 64.802,270.247 63.465 C 270.586 62.840,270.788 62.254,270.696 62.163 C 270.605 62.071,270.321 62.456,270.065 63.017 M266.465 71.017 C 265.795 72.488,265.923 72.802,266.647 71.465 C 266.986 70.840,267.188 70.254,267.096 70.163 C 267.005 70.071,266.721 70.456,266.465 71.017 M264.672 75.019 C 263.732 76.989,263.864 77.324,264.847 75.462 C 265.293 74.616,265.587 73.854,265.501 73.767 C 265.414 73.681,265.041 74.244,264.672 75.019 M229.400 79.200 C 230.779 80.113,231.200 80.191,231.200 79.533 C 231.200 79.277,231.086 79.180,230.947 79.319 C 230.809 79.458,230.319 79.308,229.858 78.986 C 229.398 78.664,228.837 78.401,228.611 78.403 C 228.385 78.404,228.740 78.763,229.400 79.200 M261.265 82.617 C 260.595 84.088,260.723 84.402,261.447 83.065 C 261.786 82.440,261.988 81.854,261.896 81.763 C 261.805 81.671,261.521 82.056,261.265 82.617 M257.872 90.219 C 256.932 92.189,257.064 92.524,258.047 90.662 C 258.493 89.816,258.787 89.054,258.701 88.967 C 258.614 88.881,258.241 89.444,257.872 90.219 M264.200 101.600 C 265.283 102.700,266.260 103.600,266.370 103.600 C 266.480 103.600,265.683 102.700,264.600 101.600 C 263.517 100.500,262.540 99.600,262.430 99.600 C 262.320 99.600,263.117 100.500,264.200 101.600 M189.116 103.097 C 190.499 103.175,192.659 103.174,193.916 103.095 C 195.172 103.016,194.040 102.952,191.400 102.953 C 188.760 102.953,187.732 103.018,189.116 103.097 M182.500 103.476 C 182.885 103.576,183.515 103.576,183.900 103.476 C 184.285 103.375,183.970 103.293,183.200 103.293 C 182.430 103.293,182.115 103.375,182.500 103.476 M198.500 103.476 C 198.885 103.576,199.515 103.576,199.900 103.476 C 200.285 103.375,199.970 103.293,199.200 103.293 C 198.430 103.293,198.115 103.375,198.500 103.476 M271.000 108.400 C 272.083 109.500,273.060 110.400,273.170 110.400 C 273.280 110.400,272.483 109.500,271.400 108.400 C 270.317 107.300,269.340 106.400,269.230 106.400 C 269.120 106.400,269.917 107.300,271.000 108.400 M153.900 112.226 C 152.855 112.770,152.000 113.305,152.000 113.414 C 152.000 113.593,155.960 111.723,156.367 111.352 C 156.862 110.901,155.561 111.362,153.900 112.226 M74.800 113.379 C 74.800 113.489,75.340 113.859,76.000 114.200 C 76.660 114.541,77.200 114.731,77.200 114.621 C 77.200 114.511,76.660 114.141,76.000 113.800 C 75.340 113.459,74.800 113.269,74.800 113.379 M79.600 116.179 C 79.600 116.289,80.140 116.659,80.800 117.000 C 81.460 117.341,82.000 117.531,82.000 117.421 C 82.000 117.311,81.460 116.941,80.800 116.600 C 80.140 116.259,79.600 116.069,79.600 116.179 M145.000 117.835 L 143.800 118.866 145.100 118.006 C 145.815 117.533,146.400 117.068,146.400 116.973 C 146.400 116.673,146.231 116.778,145.000 117.835 M140.575 121.300 L 139.400 122.600 140.700 121.425 C 141.912 120.330,142.184 120.000,141.875 120.000 C 141.806 120.000,141.221 120.585,140.575 121.300 M136.981 124.500 L 135.400 126.200 137.100 124.619 C 138.681 123.148,138.984 122.800,138.681 122.800 C 138.616 122.800,137.851 123.565,136.981 124.500 M98.446 125.020 C 98.421 125.471,98.221 126.057,98.001 126.321 C 97.782 126.586,97.890 126.553,98.240 126.249 C 98.590 125.944,98.790 125.358,98.685 124.947 C 98.512 124.274,98.488 124.281,98.446 125.020 M133.978 127.900 L 132.600 129.400 134.100 128.022 C 134.925 127.263,135.600 126.588,135.600 126.522 C 135.600 126.216,135.262 126.504,133.978 127.900 M293.628 142.600 C 293.628 142.820,293.886 143.450,294.200 144.000 C 294.514 144.550,294.772 144.820,294.772 144.600 C 294.772 144.380,294.514 143.750,294.200 143.200 C 293.886 142.650,293.628 142.380,293.628 142.600 M118.180 150.840 C 117.611 151.962,117.213 152.947,117.295 153.029 C 117.377 153.111,117.927 152.193,118.518 150.989 C 119.108 149.785,119.506 148.800,119.402 148.800 C 119.298 148.800,118.748 149.718,118.180 150.840 M305.693 185.200 C 305.693 185.970,305.775 186.285,305.876 185.900 C 305.976 185.515,305.976 184.885,305.876 184.500 C 305.775 184.115,305.693 184.430,305.693 185.200 M306.101 188.600 C 306.105 189.480,306.187 189.793,306.283 189.295 C 306.379 188.798,306.375 188.078,306.275 187.695 C 306.175 187.313,306.096 187.720,306.101 188.600 M306.514 193.000 C 306.517 194.100,306.595 194.503,306.687 193.895 C 306.779 193.286,306.777 192.386,306.682 191.895 C 306.587 191.403,306.511 191.900,306.514 193.000 M107.751 197.600 C 107.751 200.130,107.816 201.165,107.896 199.900 C 107.975 198.635,107.975 196.565,107.896 195.300 C 107.816 194.035,107.751 195.070,107.751 197.600 M306.960 203.800 C 306.961 207.100,307.022 208.397,307.098 206.682 C 307.173 204.967,307.172 202.267,307.097 200.682 C 307.021 199.097,306.959 200.500,306.960 203.800 M306.509 214.000 C 306.509 214.990,306.587 215.395,306.682 214.900 C 306.778 214.405,306.778 213.595,306.682 213.100 C 306.587 212.605,306.509 213.010,306.509 214.000 M306.101 218.200 C 306.105 219.080,306.187 219.393,306.283 218.895 C 306.379 218.398,306.375 217.678,306.275 217.295 C 306.175 216.913,306.096 217.320,306.101 218.200 M305.693 221.600 C 305.693 222.370,305.775 222.685,305.876 222.300 C 305.976 221.915,305.976 221.285,305.876 220.900 C 305.775 220.515,305.693 220.830,305.693 221.600 M117.200 239.742 C 117.200 240.177,120.386 246.400,120.609 246.400 C 120.788 246.400,117.728 240.040,117.354 239.633 C 117.269 239.542,117.200 239.591,117.200 239.742 M324.400 256.979 C 324.400 257.089,324.940 257.459,325.600 257.800 C 326.260 258.141,326.800 258.331,326.800 258.221 C 326.800 258.111,326.260 257.741,325.600 257.400 C 324.940 257.059,324.400 256.869,324.400 256.979 M136.400 268.600 C 138.260 270.470,139.872 272.000,139.982 272.000 C 140.092 272.000,138.660 270.470,136.800 268.600 C 134.940 266.730,133.328 265.200,133.218 265.200 C 133.108 265.200,134.540 266.730,136.400 268.600 M148.000 278.146 C 148.000 278.256,148.540 278.730,149.200 279.200 C 149.860 279.670,150.400 279.964,150.400 279.854 C 150.400 279.744,149.860 279.270,149.200 278.800 C 148.540 278.330,148.000 278.036,148.000 278.146 M282.400 280.400 C 281.930 281.060,281.636 281.600,281.746 281.600 C 281.856 281.600,282.330 281.060,282.800 280.400 C 283.270 279.740,283.564 279.200,283.454 279.200 C 283.344 279.200,282.870 279.740,282.400 280.400 M156.000 283.379 C 156.000 283.489,156.540 283.859,157.200 284.200 C 157.860 284.541,158.400 284.731,158.400 284.621 C 158.400 284.511,157.860 284.141,157.200 283.800 C 156.540 283.459,156.000 283.269,156.000 283.379 M275.578 289.100 L 274.200 290.600 275.700 289.222 C 277.096 287.938,277.384 287.600,277.078 287.600 C 277.012 287.600,276.337 288.275,275.578 289.100 M369.665 289.017 C 368.995 290.488,369.123 290.802,369.847 289.465 C 370.186 288.840,370.388 288.254,370.296 288.163 C 370.205 288.071,369.921 288.456,369.665 289.017 M171.400 290.400 C 171.840 290.589,172.470 290.744,172.800 290.744 C 173.178 290.744,173.104 290.617,172.600 290.400 C 172.160 290.211,171.530 290.056,171.200 290.056 C 170.822 290.056,170.896 290.183,171.400 290.400 M270.981 294.100 L 269.400 295.800 271.100 294.219 C 272.035 293.349,272.800 292.584,272.800 292.519 C 272.800 292.216,272.452 292.519,270.981 294.100 M266.981 297.700 L 265.400 299.400 267.100 297.819 C 268.681 296.348,268.984 296.000,268.681 296.000 C 268.616 296.000,267.851 296.765,266.981 297.700 M257.800 305.035 L 256.600 306.066 257.900 305.206 C 258.615 304.733,259.200 304.268,259.200 304.173 C 259.200 303.873,259.031 303.978,257.800 305.035 M242.400 314.400 C 241.190 315.039,240.341 315.571,240.513 315.581 C 240.938 315.607,244.800 313.636,244.800 313.393 C 244.800 313.126,244.855 313.103,242.400 314.400 M154.955 318.612 C 154.590 319.169,154.364 319.698,154.453 319.787 C 154.542 319.876,154.918 319.420,155.289 318.774 C 156.114 317.336,155.869 317.217,154.955 318.612 M152.865 323.017 C 152.195 324.488,152.323 324.802,153.047 323.465 C 153.386 322.840,153.588 322.254,153.496 322.163 C 153.405 322.071,153.121 322.456,152.865 323.017 M171.700 323.876 C 172.085 323.976,172.715 323.976,173.100 323.876 C 173.485 323.775,173.170 323.693,172.400 323.693 C 171.630 323.693,171.315 323.775,171.700 323.876 M174.500 324.276 C 174.885 324.376,175.515 324.376,175.900 324.276 C 176.285 324.175,175.970 324.093,175.200 324.093 C 174.430 324.093,174.115 324.175,174.500 324.276 M182.500 325.476 C 182.885 325.576,183.515 325.576,183.900 325.476 C 184.285 325.375,183.970 325.293,183.200 325.293 C 182.430 325.293,182.115 325.375,182.500 325.476 M205.905 325.483 C 206.402 325.579,207.122 325.575,207.505 325.475 C 207.887 325.375,207.480 325.296,206.600 325.301 C 205.720 325.305,205.407 325.387,205.905 325.483 M186.305 325.883 C 186.802 325.979,187.522 325.975,187.905 325.875 C 188.287 325.775,187.880 325.696,187.000 325.701 C 186.120 325.705,185.807 325.787,186.305 325.883 M201.900 325.882 C 202.395 325.978,203.205 325.978,203.700 325.882 C 204.195 325.787,203.790 325.709,202.800 325.709 C 201.810 325.709,201.405 325.787,201.900 325.882 M193.312 326.295 C 194.364 326.377,195.984 326.376,196.912 326.292 C 197.840 326.208,196.980 326.141,195.000 326.142 C 193.020 326.143,192.260 326.212,193.312 326.295 M146.065 338.217 C 145.395 339.688,145.523 340.002,146.247 338.665 C 146.586 338.040,146.788 337.454,146.696 337.363 C 146.605 337.271,146.321 337.656,146.065 338.217 M138.865 354.217 C 138.195 355.688,138.323 356.002,139.047 354.665 C 139.386 354.040,139.588 353.454,139.496 353.363 C 139.405 353.271,139.121 353.656,138.865 354.217 M137.265 357.817 C 136.595 359.288,136.723 359.602,137.447 358.265 C 137.786 357.640,137.988 357.054,137.896 356.963 C 137.805 356.871,137.521 357.256,137.265 357.817 M133.665 365.817 C 132.995 367.288,133.123 367.602,133.847 366.265 C 134.186 365.640,134.388 365.054,134.296 364.963 C 134.205 364.871,133.921 365.256,133.665 365.817 M126.865 381.017 C 126.195 382.488,126.323 382.802,127.047 381.465 C 127.386 380.840,127.588 380.254,127.496 380.163 C 127.405 380.071,127.121 380.456,126.865 381.017 M125.072 385.019 C 124.132 386.989,124.264 387.324,125.247 385.462 C 125.693 384.616,125.987 383.854,125.901 383.767 C 125.814 383.681,125.441 384.244,125.072 385.019 " stroke="none" fill="#cba404" fill-rule="evenodd" data-darkreader-inline-fill="" data-darkreader-inline-stroke="" ></path><path id="path3" d="M286.465 25.817 C 285.795 27.288,285.923 27.602,286.647 26.265 C 286.986 25.640,287.188 25.054,287.096 24.963 C 287.005 24.871,286.721 25.256,286.465 25.817 M281.265 37.417 C 280.595 38.888,280.723 39.202,281.447 37.865 C 281.786 37.240,281.988 36.654,281.896 36.563 C 281.805 36.471,281.521 36.856,281.265 37.417 M270.865 60.617 C 270.195 62.088,270.323 62.402,271.047 61.065 C 271.386 60.440,271.588 59.854,271.496 59.763 C 271.405 59.671,271.121 60.056,270.865 60.617 M226.400 78.022 C 227.402 78.705,229.948 80.000,230.284 79.997 C 230.458 79.996,230.104 79.667,229.497 79.267 C 228.890 78.867,228.530 78.392,228.697 78.211 C 228.864 78.030,228.595 77.982,228.100 78.103 C 227.606 78.225,227.100 78.162,226.977 77.962 C 226.854 77.763,226.538 77.603,226.276 77.606 C 225.986 77.610,226.034 77.772,226.400 78.022 M258.865 87.417 C 258.195 88.888,258.323 89.202,259.047 87.865 C 259.386 87.240,259.588 86.654,259.496 86.563 C 259.405 86.471,259.121 86.856,258.865 87.417 M262.800 100.600 C 263.546 101.370,264.247 102.000,264.357 102.000 C 264.467 102.000,263.946 101.370,263.200 100.600 C 262.454 99.830,261.753 99.200,261.643 99.200 C 261.533 99.200,262.054 99.830,262.800 100.600 M184.300 103.082 C 184.795 103.178,185.605 103.178,186.100 103.082 C 186.595 102.987,186.190 102.909,185.200 102.909 C 184.210 102.909,183.805 102.987,184.300 103.082 M196.700 103.082 C 197.195 103.178,198.005 103.178,198.500 103.082 C 198.995 102.987,198.590 102.909,197.600 102.909 C 196.610 102.909,196.205 102.987,196.700 103.082 M267.600 105.000 C 268.346 105.770,269.047 106.400,269.157 106.400 C 269.267 106.400,268.746 105.770,268.000 105.000 C 267.254 104.230,266.553 103.600,266.443 103.600 C 266.333 103.600,266.854 104.230,267.600 105.000 M210.800 105.493 C 213.157 106.395,215.712 107.158,215.389 106.862 C 214.934 106.446,211.255 105.185,210.629 105.232 C 210.393 105.249,210.470 105.367,210.800 105.493 M272.000 109.800 C 272.746 110.570,273.447 111.200,273.557 111.200 C 273.667 111.200,273.146 110.570,272.400 109.800 C 271.654 109.030,270.953 108.400,270.843 108.400 C 270.733 108.400,271.254 109.030,272.000 109.800 M156.800 110.600 C 156.250 110.914,155.980 111.172,156.200 111.172 C 156.420 111.172,157.050 110.914,157.600 110.600 C 158.150 110.286,158.420 110.028,158.200 110.028 C 157.980 110.028,157.350 110.286,156.800 110.600 M139.775 121.700 L 138.600 123.000 139.900 121.825 C 141.112 120.730,141.384 120.400,141.075 120.400 C 141.006 120.400,140.421 120.985,139.775 121.700 M133.978 127.500 L 132.600 129.000 134.100 127.622 C 134.925 126.863,135.600 126.188,135.600 126.122 C 135.600 125.816,135.262 126.104,133.978 127.500 M289.400 134.800 C 289.741 135.460,290.111 136.000,290.221 136.000 C 290.331 136.000,290.141 135.460,289.800 134.800 C 289.459 134.140,289.089 133.600,288.979 133.600 C 288.869 133.600,289.059 134.140,289.400 134.800 M125.600 138.000 C 125.130 138.660,124.836 139.200,124.946 139.200 C 125.056 139.200,125.530 138.660,126.000 138.000 C 126.470 137.340,126.764 136.800,126.654 136.800 C 126.544 136.800,126.070 137.340,125.600 138.000 M107.724 191.000 C 107.726 192.320,107.801 192.812,107.890 192.093 C 107.979 191.374,107.977 190.294,107.886 189.693 C 107.795 189.092,107.722 189.680,107.724 191.000 M306.101 191.400 C 306.105 192.280,306.187 192.593,306.283 192.095 C 306.379 191.598,306.375 190.878,306.275 190.495 C 306.175 190.113,306.096 190.520,306.101 191.400 M306.540 198.000 C 306.540 199.870,306.609 200.635,306.693 199.700 C 306.777 198.765,306.777 197.235,306.693 196.300 C 306.609 195.365,306.540 196.130,306.540 198.000 M107.720 204.000 C 107.720 205.210,107.795 205.705,107.887 205.100 C 107.978 204.495,107.978 203.505,107.887 202.900 C 107.795 202.295,107.720 202.790,107.720 204.000 M306.537 209.400 C 306.539 211.160,306.609 211.830,306.693 210.889 C 306.778 209.949,306.777 208.509,306.691 207.689 C 306.605 206.870,306.536 207.640,306.537 209.400 M108.093 208.400 C 108.093 209.170,108.175 209.485,108.276 209.100 C 108.376 208.715,108.376 208.085,108.276 207.700 C 108.175 207.315,108.093 207.630,108.093 208.400 M306.093 215.600 C 306.093 216.370,306.175 216.685,306.276 216.300 C 306.376 215.915,306.376 215.285,306.276 214.900 C 306.175 214.515,306.093 214.830,306.093 215.600 M127.200 258.000 C 127.670 258.660,128.144 259.200,128.254 259.200 C 128.364 259.200,128.070 258.660,127.600 258.000 C 127.130 257.340,126.656 256.800,126.546 256.800 C 126.436 256.800,126.730 257.340,127.200 258.000 M136.000 268.600 C 137.417 270.030,138.667 271.200,138.777 271.200 C 138.887 271.200,137.817 270.030,136.400 268.600 C 134.983 267.170,133.733 266.000,133.623 266.000 C 133.513 266.000,134.583 267.170,136.000 268.600 M358.400 276.979 C 358.400 277.089,358.940 277.459,359.600 277.800 C 360.260 278.141,360.800 278.331,360.800 278.221 C 360.800 278.111,360.260 277.741,359.600 277.400 C 358.940 277.059,358.400 276.869,358.400 276.979 M151.000 280.607 C 151.440 280.966,152.160 281.435,152.600 281.651 L 153.400 282.044 152.600 281.393 C 152.160 281.034,151.440 280.565,151.000 280.349 L 150.200 279.956 151.000 280.607 M281.200 281.600 C 280.730 282.260,280.436 282.800,280.546 282.800 C 280.656 282.800,281.130 282.260,281.600 281.600 C 282.070 280.940,282.364 280.400,282.254 280.400 C 282.144 280.400,281.670 280.940,281.200 281.600 M159.200 285.396 C 159.200 285.670,161.649 286.884,161.832 286.701 C 161.919 286.614,161.362 286.244,160.595 285.878 C 159.828 285.512,159.200 285.295,159.200 285.396 M275.775 288.500 L 274.600 289.800 275.900 288.625 C 277.112 287.530,277.384 287.200,277.075 287.200 C 277.006 287.200,276.421 287.785,275.775 288.500 M271.389 293.300 L 268.600 296.200 271.500 293.411 C 274.194 290.820,274.583 290.400,274.289 290.400 C 274.228 290.400,272.923 291.705,271.389 293.300 M173.000 291.209 C 173.996 291.626,175.836 291.703,175.444 291.311 C 175.285 291.152,174.490 290.988,173.678 290.948 C 172.556 290.891,172.393 290.954,173.000 291.209 M366.465 295.817 C 365.795 297.288,365.923 297.602,366.647 296.265 C 366.986 295.640,367.188 295.054,367.096 294.963 C 367.005 294.871,366.721 295.256,366.465 295.817 M266.175 298.100 L 265.000 299.400 266.300 298.225 C 267.015 297.579,267.600 296.994,267.600 296.925 C 267.600 296.616,267.270 296.888,266.175 298.100 M153.665 320.617 C 152.995 322.088,153.123 322.402,153.847 321.065 C 154.186 320.440,154.388 319.854,154.296 319.763 C 154.205 319.671,153.921 320.056,153.665 320.617 M170.900 323.476 C 171.285 323.576,171.915 323.576,172.300 323.476 C 172.685 323.375,172.370 323.293,171.600 323.293 C 170.830 323.293,170.515 323.375,170.900 323.476 M185.105 325.483 C 185.602 325.579,186.322 325.575,186.705 325.475 C 187.087 325.375,186.680 325.296,185.800 325.301 C 184.920 325.305,184.607 325.387,185.105 325.483 M203.300 325.476 C 203.685 325.576,204.315 325.576,204.700 325.476 C 205.085 325.375,204.770 325.293,204.000 325.293 C 203.230 325.293,202.915 325.375,203.300 325.476 M191.500 325.898 C 193.315 325.972,196.285 325.972,198.100 325.898 C 199.915 325.823,198.430 325.763,194.800 325.763 C 191.170 325.763,189.685 325.823,191.500 325.898 M150.065 328.617 C 149.395 330.088,149.523 330.402,150.247 329.065 C 150.586 328.440,150.788 327.854,150.696 327.763 C 150.605 327.671,150.321 328.056,150.065 328.617 M141.665 347.417 C 140.995 348.888,141.123 349.202,141.847 347.865 C 142.186 347.240,142.388 346.654,142.296 346.563 C 142.205 346.471,141.921 346.856,141.665 347.417 " stroke="none" fill="#d7ac04" fill-rule="evenodd" data-darkreader-inline-fill="" data-darkreader-inline-stroke="" ></path><path id="path4" d="M274.200 7.087 C 274.596 7.487,285.277 13.817,287.200 14.791 C 289.775 16.096,286.797 14.184,281.000 10.811 C 273.639 6.528,273.657 6.538,274.200 7.087 M289.147 15.910 C 289.864 16.489,290.029 16.908,289.828 17.637 C 289.597 18.472,289.622 18.504,290.014 17.876 C 290.593 16.949,290.289 16.172,289.123 15.599 L 288.200 15.146 289.147 15.910 M288.865 19.817 C 288.195 21.288,288.323 21.602,289.047 20.265 C 289.386 19.640,289.588 19.054,289.496 18.963 C 289.405 18.871,289.121 19.256,288.865 19.817 M286.461 25.163 C 285.547 27.129,284.809 28.886,284.819 29.069 C 284.830 29.251,285.641 27.706,286.622 25.636 C 287.603 23.566,288.342 21.808,288.264 21.730 C 288.185 21.652,287.374 23.197,286.461 25.163 M282.861 33.163 C 281.947 35.129,281.212 36.886,281.228 37.069 C 281.243 37.251,282.055 35.707,283.032 33.638 C 284.010 31.569,284.745 29.811,284.665 29.732 C 284.586 29.653,283.774 31.197,282.861 33.163 M278.859 42.059 C 277.941 44.075,277.254 45.787,277.331 45.864 C 277.408 45.942,278.223 44.356,279.141 42.341 C 280.059 40.325,280.746 38.613,280.669 38.536 C 280.592 38.458,279.777 40.044,278.859 42.059 M276.465 47.417 C 275.795 48.888,275.923 49.202,276.647 47.865 C 276.986 47.240,277.188 46.654,277.096 46.563 C 277.005 46.471,276.721 46.856,276.465 47.417 M274.259 52.377 C 273.457 54.133,272.810 55.711,272.823 55.884 C 272.835 56.058,273.557 54.686,274.426 52.837 C 275.295 50.987,275.942 49.408,275.862 49.329 C 275.783 49.250,275.062 50.621,274.259 52.377 M270.460 60.810 C 269.547 62.804,268.812 64.561,268.828 64.717 C 268.843 64.873,269.655 63.307,270.632 61.238 C 271.610 59.169,272.344 57.411,272.265 57.331 C 272.185 57.252,271.373 58.817,270.460 60.810 M267.067 68.467 C 266.259 70.262,265.662 71.795,265.739 71.872 C 265.816 71.950,266.541 70.545,267.350 68.750 C 268.159 66.955,268.756 65.423,268.678 65.344 C 268.599 65.266,267.874 66.671,267.067 68.467 M262.060 79.610 C 261.147 81.604,260.412 83.361,260.428 83.517 C 260.443 83.673,261.255 82.107,262.232 80.038 C 263.210 77.969,263.944 76.211,263.865 76.131 C 263.785 76.052,262.973 77.617,262.060 79.610 M226.000 78.404 C 226.829 79.056,230.770 80.800,231.415 80.800 C 231.517 80.800,231.600 80.609,231.600 80.376 C 231.600 80.143,231.435 80.055,231.234 80.179 C 231.033 80.303,229.657 79.774,228.177 79.003 C 225.143 77.421,224.539 77.255,226.000 78.404 M258.460 87.610 C 257.547 89.604,256.812 91.361,256.828 91.517 C 256.843 91.673,257.655 90.107,258.632 88.038 C 259.610 85.969,260.344 84.211,260.265 84.131 C 260.185 84.052,259.373 85.617,258.460 87.610 M33.600 90.112 C 34.125 90.610,53.349 101.831,56.000 103.187 C 58.676 104.555,55.576 102.563,50.400 99.588 C 47.210 97.755,41.990 94.744,38.800 92.899 C 35.610 91.053,33.270 89.799,33.600 90.112 M256.014 93.167 C 255.350 94.770,255.302 94.700,259.400 98.095 C 265.933 103.508,273.220 111.190,278.756 118.500 C 279.714 119.765,280.587 120.800,280.696 120.800 C 280.957 120.800,279.367 118.669,275.635 114.017 C 270.911 108.129,263.076 100.411,257.019 95.680 C 255.920 94.822,255.872 94.674,256.313 93.506 C 256.923 91.891,256.664 91.597,256.014 93.167 M182.200 102.757 C 181.320 102.891,185.460 103.000,191.400 103.000 C 197.340 103.000,201.390 102.878,200.400 102.730 C 198.201 102.399,184.416 102.420,182.200 102.757 M57.200 103.715 C 57.200 103.896,61.473 106.503,63.500 107.559 C 65.298 108.496,64.345 107.645,62.300 106.487 C 61.145 105.834,59.525 104.899,58.700 104.410 C 57.875 103.921,57.200 103.608,57.200 103.715 M169.000 105.600 C 168.496 105.817,168.422 105.944,168.800 105.944 C 169.130 105.944,169.760 105.789,170.200 105.600 C 170.704 105.383,170.778 105.256,170.400 105.256 C 170.070 105.256,169.440 105.411,169.000 105.600 M213.000 105.836 C 215.459 106.727,217.200 107.604,217.200 107.952 C 217.200 108.125,217.499 108.267,217.864 108.267 C 219.053 108.267,216.508 106.580,214.240 105.865 C 211.668 105.054,210.786 105.034,213.000 105.836 M163.889 107.296 C 162.179 107.965,160.847 108.581,160.931 108.664 C 161.015 108.748,162.684 108.194,164.641 107.433 C 166.599 106.672,167.930 106.057,167.600 106.065 C 167.270 106.073,165.600 106.627,163.889 107.296 M65.400 108.595 C 66.305 109.350,69.618 111.101,69.000 110.497 C 68.780 110.282,67.700 109.616,66.600 109.017 C 65.500 108.417,64.960 108.228,65.400 108.595 M156.500 110.387 C 154.685 111.247,153.200 112.040,153.200 112.150 C 153.200 112.327,159.956 109.307,160.367 108.946 C 160.940 108.443,159.352 109.035,156.500 110.387 M69.600 110.940 C 69.600 111.101,74.009 113.774,75.900 114.759 C 77.850 115.775,76.650 114.803,74.100 113.300 C 70.749 111.326,69.600 110.724,69.600 110.940 M149.258 114.304 C 140.414 119.651,130.354 129.722,124.588 139.000 C 123.373 140.955,124.087 140.082,128.024 134.800 C 134.707 125.833,141.894 119.239,151.432 113.324 C 151.854 113.061,152.098 112.836,151.973 112.824 C 151.847 112.811,150.626 113.477,149.258 114.304 M77.200 115.315 C 77.200 115.496,81.473 118.103,83.500 119.159 C 85.298 120.096,84.345 119.245,82.300 118.087 C 81.145 117.434,79.525 116.499,78.700 116.010 C 77.875 115.521,77.200 115.208,77.200 115.315 M85.400 120.195 C 86.305 120.950,89.618 122.701,89.000 122.097 C 88.780 121.882,87.700 121.216,86.600 120.617 C 85.500 120.017,84.960 119.828,85.400 120.195 M282.655 124.000 C 283.680 125.540,284.592 126.800,284.682 126.800 C 284.895 126.800,284.598 126.301,282.715 123.500 C 281.866 122.235,281.085 121.200,280.982 121.200 C 280.878 121.200,281.631 122.460,282.655 124.000 M89.800 122.685 C 90.577 123.417,97.218 127.200,97.726 127.200 C 98.508 127.200,99.205 126.336,99.160 125.420 C 99.127 124.732,99.076 124.760,98.843 125.598 C 98.430 127.082,97.561 127.012,94.705 125.264 C 91.797 123.485,89.197 122.117,89.800 122.685 M285.610 128.700 C 286.099 129.525,287.034 131.145,287.687 132.300 C 288.991 134.603,289.614 135.174,288.560 133.100 C 287.594 131.199,285.116 127.200,284.904 127.200 C 284.803 127.200,285.121 127.875,285.610 128.700 M291.084 138.586 C 291.897 140.228,292.627 141.507,292.706 141.427 C 292.885 141.249,290.065 135.600,289.798 135.600 C 289.693 135.600,290.271 136.944,291.084 138.586 M122.884 141.500 C 122.460 142.105,121.902 143.005,121.643 143.500 C 120.800 145.110,121.450 144.450,122.724 142.400 C 124.054 140.259,124.157 139.682,122.884 141.500 M292.867 142.319 C 292.940 142.494,293.800 144.560,294.777 146.909 C 295.754 149.257,296.624 151.109,296.711 151.023 C 296.903 150.830,293.202 142.000,292.929 142.000 C 292.821 142.000,292.793 142.144,292.867 142.319 M119.887 146.500 C 118.444 148.982,116.327 153.261,116.474 153.403 C 116.543 153.470,117.635 151.561,118.900 149.162 C 121.193 144.812,121.763 143.275,119.887 146.500 M297.454 153.600 C 297.589 154.150,297.945 155.140,298.245 155.800 C 298.684 156.764,298.743 156.803,298.546 156.000 C 298.411 155.450,298.055 154.460,297.755 153.800 C 297.316 152.836,297.257 152.797,297.454 153.600 M115.253 156.053 C 114.780 157.193,114.458 158.192,114.539 158.272 C 114.620 158.353,115.073 157.486,115.547 156.347 C 116.020 155.207,116.342 154.208,116.261 154.128 C 116.180 154.047,115.727 154.914,115.253 156.053 M298.863 157.400 C 298.862 157.620,299.103 158.430,299.400 159.200 C 299.697 159.970,299.945 160.330,299.952 160.000 C 299.958 159.670,299.717 158.860,299.414 158.200 C 299.112 157.540,298.864 157.180,298.863 157.400 M113.445 160.650 C 113.090 161.691,112.813 162.735,112.829 162.971 C 112.845 163.207,113.205 162.424,113.628 161.232 C 114.051 160.040,114.328 158.995,114.244 158.910 C 114.159 158.826,113.800 159.608,113.445 160.650 M110.671 169.694 C 110.302 171.163,110.016 172.597,110.036 172.882 C 110.056 173.167,110.412 172.140,110.826 170.600 C 111.241 169.060,111.527 167.625,111.461 167.412 C 111.395 167.199,111.040 168.226,110.671 169.694 M302.062 168.400 C 302.046 168.730,302.367 170.350,302.775 172.000 C 303.183 173.650,303.521 174.640,303.526 174.200 C 303.537 173.228,302.104 167.551,302.062 168.400 M304.893 183.200 C 304.893 183.970,304.975 184.285,305.076 183.900 C 305.176 183.515,305.176 182.885,305.076 182.500 C 304.975 182.115,304.893 182.430,304.893 183.200 M107.658 186.405 C 107.162 190.761,107.085 204.280,107.539 207.200 C 107.693 208.190,107.747 205.075,107.660 200.278 C 107.563 194.979,107.692 189.828,107.988 187.149 C 108.256 184.725,108.394 182.660,108.295 182.561 C 108.196 182.463,107.909 184.192,107.658 186.405 M305.309 186.400 C 305.309 187.390,305.387 187.795,305.482 187.300 C 305.578 186.805,305.578 185.995,305.482 185.500 C 305.387 185.005,305.309 185.410,305.309 186.400 M305.906 193.200 C 306.211 199.584,306.211 208.126,305.907 214.000 C 305.717 217.687,305.742 218.084,306.036 216.000 C 306.519 212.575,306.525 195.022,306.045 191.200 C 305.726 188.663,305.704 188.971,305.906 193.200 M305.301 220.200 C 305.305 221.080,305.387 221.393,305.483 220.895 C 305.579 220.398,305.575 219.678,305.475 219.295 C 305.375 218.913,305.296 219.320,305.301 220.200 M110.186 221.513 C 110.447 223.235,111.633 227.300,111.820 227.114 C 111.900 227.033,111.520 225.445,110.976 223.584 C 110.432 221.723,110.077 220.791,110.186 221.513 M112.430 229.037 C 112.363 230.025,115.933 239.001,116.262 238.672 C 116.344 238.590,115.936 237.460,115.355 236.161 C 114.775 234.863,113.886 232.630,113.380 231.200 C 112.874 229.770,112.446 228.797,112.430 229.037 M302.632 234.232 C 302.240 235.893,301.995 237.328,302.088 237.421 C 302.180 237.514,302.577 236.230,302.968 234.568 C 303.360 232.907,303.605 231.472,303.512 231.379 C 303.420 231.286,303.023 232.570,302.632 234.232 M301.429 239.029 C 301.281 239.615,301.238 240.172,301.332 240.266 C 301.427 240.360,301.624 239.958,301.771 239.371 C 301.919 238.785,301.962 238.228,301.868 238.134 C 301.773 238.040,301.576 238.442,301.429 239.029 M116.400 239.341 C 116.400 239.777,119.986 246.800,120.208 246.800 C 120.387 246.800,116.929 239.640,116.554 239.233 C 116.469 239.142,116.400 239.190,116.400 239.341 M300.425 243.016 C 300.402 243.759,306.590 247.943,307.042 247.491 C 307.120 247.413,305.824 246.576,304.163 245.631 C 302.501 244.686,300.986 243.527,300.796 243.056 C 300.460 242.223,300.450 242.222,300.425 243.016 M121.133 248.639 C 126.925 260.201,137.889 272.297,149.800 280.265 C 152.790 282.265,156.000 284.139,156.000 283.884 C 156.000 283.778,154.717 282.929,153.148 281.997 C 141.522 275.090,130.814 264.338,123.904 252.633 C 120.894 247.534,119.762 245.903,121.133 248.639 M308.329 248.276 C 309.393 249.159,314.000 251.750,314.000 251.465 C 314.000 251.361,312.965 250.693,311.700 249.980 C 310.435 249.267,308.950 248.419,308.400 248.094 L 307.400 247.505 308.329 248.276 M315.104 252.258 C 316.146 253.113,321.600 256.139,321.600 255.862 C 321.600 255.760,320.655 255.141,319.500 254.487 C 314.527 251.672,314.172 251.492,315.104 252.258 M322.200 256.306 C 322.420 256.545,324.850 258.031,327.600 259.608 C 333.778 263.151,334.000 263.270,334.000 263.047 C 334.000 262.948,331.885 261.660,329.300 260.186 C 326.715 258.711,323.970 257.137,323.200 256.688 C 322.430 256.239,321.980 256.067,322.200 256.306 M334.400 263.315 C 334.400 263.496,338.673 266.103,340.700 267.159 C 342.498 268.096,341.545 267.245,339.500 266.087 C 338.345 265.434,336.725 264.499,335.900 264.010 C 335.075 263.521,334.400 263.208,334.400 263.315 M342.000 267.715 C 342.000 267.896,346.273 270.503,348.300 271.559 C 350.098 272.496,349.145 271.645,347.100 270.487 C 345.945 269.834,344.325 268.899,343.500 268.410 C 342.675 267.921,342.000 267.608,342.000 267.715 M286.135 273.883 C 277.343 287.513,268.329 296.955,255.700 305.765 C 253.885 307.031,252.400 308.152,252.400 308.257 C 252.400 309.141,264.241 299.969,269.562 294.963 C 275.143 289.712,282.494 280.552,287.052 273.168 C 288.021 271.599,288.728 270.840,289.093 270.980 C 290.601 271.559,295.219 274.501,295.573 275.109 C 295.794 275.489,295.978 275.620,295.982 275.400 C 295.994 274.618,295.361 274.098,292.161 272.260 C 288.146 269.955,288.779 269.784,286.135 273.883 M350.200 272.595 C 351.105 273.350,354.418 275.101,353.800 274.497 C 353.580 274.282,352.500 273.616,351.400 273.017 C 350.300 272.417,349.760 272.228,350.200 272.595 M354.400 274.931 C 354.400 275.041,357.325 276.829,360.900 278.905 C 368.369 283.241,369.200 283.696,369.200 283.446 C 369.200 283.293,365.149 280.899,356.100 275.707 C 355.165 275.171,354.400 274.822,354.400 274.931 M370.158 284.165 C 370.897 284.758,370.890 284.835,369.846 287.241 C 369.257 288.598,368.843 289.777,368.926 289.859 C 369.082 290.015,371.203 285.218,371.201 284.714 C 371.201 284.557,370.795 284.232,370.300 283.992 C 369.447 283.579,369.440 283.588,370.158 284.165 M156.400 284.184 C 156.400 284.294,157.120 284.751,158.000 285.200 C 158.880 285.649,159.600 285.926,159.600 285.816 C 159.600 285.706,158.880 285.249,158.000 284.800 C 157.120 284.351,156.400 284.074,156.400 284.184 M163.600 287.967 C 164.810 288.588,166.250 289.211,166.800 289.351 C 167.350 289.492,166.472 288.975,164.848 288.203 C 161.325 286.529,160.488 286.371,163.600 287.967 M168.068 289.802 C 168.179 289.913,169.591 290.453,171.205 291.002 C 174.056 291.971,178.074 292.414,176.819 291.620 C 176.499 291.418,175.779 291.340,175.219 291.447 C 174.658 291.553,172.863 291.182,171.230 290.620 C 168.178 289.572,167.720 289.453,168.068 289.802 M367.257 293.257 C 366.561 294.834,366.055 296.188,366.134 296.267 C 366.212 296.346,366.846 295.120,367.543 293.543 C 368.239 291.966,368.745 290.612,368.666 290.533 C 368.588 290.454,367.954 291.680,367.257 293.257 M365.265 297.817 C 364.595 299.288,364.723 299.602,365.447 298.265 C 365.786 297.640,365.988 297.054,365.896 296.963 C 365.805 296.871,365.521 297.256,365.265 297.817 M362.434 304.434 C 361.281 307.094,360.402 309.335,360.481 309.415 C 360.561 309.495,361.568 307.382,362.720 304.720 C 363.872 302.058,364.750 299.817,364.673 299.739 C 364.595 299.662,363.588 301.775,362.434 304.434 M249.800 309.685 C 248.700 310.383,245.820 311.996,243.400 313.268 C 238.559 315.813,237.920 316.450,242.510 314.155 C 246.909 311.956,252.820 308.338,251.900 308.408 C 251.845 308.412,250.900 308.987,249.800 309.685 M231.000 318.629 C 228.580 319.585,226.816 320.375,227.081 320.384 C 227.662 320.403,236.000 317.212,236.000 316.970 C 236.000 316.682,235.544 316.833,231.000 318.629 M154.080 319.011 C 152.882 321.476,152.997 321.861,154.226 319.500 C 155.409 317.227,155.353 317.232,159.568 319.010 C 161.408 319.786,162.981 320.352,163.065 320.269 C 163.285 320.049,156.318 317.187,155.580 317.194 C 155.239 317.197,154.564 318.015,154.080 319.011 M224.000 321.000 C 223.230 321.297,222.870 321.539,223.200 321.539 C 223.530 321.539,224.430 321.297,225.200 321.000 C 225.970 320.703,226.330 320.461,226.000 320.461 C 225.670 320.461,224.770 320.703,224.000 321.000 M151.467 324.867 C 150.659 326.662,150.062 328.195,150.139 328.272 C 150.216 328.350,150.941 326.945,151.750 325.150 C 152.559 323.355,153.156 321.823,153.078 321.744 C 152.999 321.666,152.274 323.071,151.467 324.867 M216.200 323.005 C 214.220 323.508,212.848 323.937,213.150 323.959 C 213.862 324.012,220.800 322.386,220.800 322.167 C 220.800 321.896,219.997 322.042,216.200 323.005 M169.895 322.900 C 169.755 323.268,170.455 323.413,172.553 323.449 L 175.400 323.499 173.000 322.967 C 169.995 322.301,170.122 322.304,169.895 322.900 M180.500 324.676 C 180.885 324.776,181.515 324.776,181.900 324.676 C 182.285 324.575,181.970 324.493,181.200 324.493 C 180.430 324.493,180.115 324.575,180.500 324.676 M208.100 324.676 C 208.485 324.776,209.115 324.776,209.500 324.676 C 209.885 324.575,209.570 324.493,208.800 324.493 C 208.030 324.493,207.715 324.575,208.100 324.676 M183.505 325.083 C 184.002 325.179,184.722 325.175,185.105 325.075 C 185.487 324.975,185.080 324.896,184.200 324.901 C 183.320 324.905,183.007 324.987,183.505 325.083 M204.700 325.082 C 205.195 325.178,206.005 325.178,206.500 325.082 C 206.995 324.987,206.590 324.909,205.600 324.909 C 204.610 324.909,204.205 324.987,204.700 325.082 M188.300 325.489 C 189.015 325.578,190.185 325.578,190.900 325.489 C 191.615 325.401,191.030 325.328,189.600 325.328 C 188.170 325.328,187.585 325.401,188.300 325.489 M199.100 325.489 C 199.815 325.578,200.985 325.578,201.700 325.489 C 202.415 325.401,201.830 325.328,200.400 325.328 C 198.970 325.328,198.385 325.401,199.100 325.489 M148.865 330.617 C 148.195 332.088,148.323 332.402,149.047 331.065 C 149.386 330.440,149.588 329.854,149.496 329.763 C 149.405 329.671,149.121 330.056,148.865 330.617 M146.460 336.010 C 145.547 338.004,144.812 339.761,144.828 339.917 C 144.843 340.073,145.655 338.507,146.632 336.438 C 147.610 334.369,148.344 332.611,148.265 332.531 C 148.185 332.452,147.373 334.017,146.460 336.010 M142.859 344.059 C 141.941 346.075,141.254 347.787,141.331 347.864 C 141.408 347.942,142.223 346.356,143.141 344.341 C 144.059 342.325,144.746 340.613,144.669 340.536 C 144.592 340.458,143.777 342.044,142.859 344.059 M140.272 349.819 C 139.332 351.789,139.464 352.124,140.447 350.262 C 140.893 349.416,141.187 348.654,141.101 348.567 C 141.014 348.481,140.641 349.044,140.272 349.819 M138.475 353.819 C 137.270 356.300,137.405 356.647,138.646 354.261 C 139.201 353.194,139.587 352.253,139.503 352.170 C 139.419 352.086,138.957 352.828,138.475 353.819 M136.865 357.417 C 136.195 358.888,136.323 359.202,137.047 357.865 C 137.386 357.240,137.588 356.654,137.496 356.563 C 137.405 356.471,137.121 356.856,136.865 357.417 M134.460 362.810 C 133.547 364.804,132.812 366.561,132.828 366.717 C 132.843 366.873,133.655 365.307,134.632 363.238 C 135.610 361.169,136.344 359.411,136.265 359.331 C 136.185 359.252,135.373 360.817,134.460 362.810 M130.844 370.844 C 129.923 372.856,129.237 374.570,129.320 374.654 C 129.404 374.737,130.223 373.156,131.141 371.141 C 132.059 369.125,132.745 367.411,132.665 367.332 C 132.585 367.252,131.766 368.833,130.844 370.844 M126.649 380.249 C 125.387 383.021,124.419 385.352,124.497 385.430 C 124.575 385.508,125.669 383.303,126.930 380.530 C 128.190 377.757,129.158 375.425,129.082 375.348 C 129.005 375.271,127.910 377.477,126.649 380.249 M122.250 390.050 C 121.441 391.845,120.844 393.377,120.922 393.456 C 121.001 393.534,121.726 392.129,122.533 390.333 C 123.341 388.538,123.938 387.005,123.861 386.928 C 123.784 386.850,123.059 388.255,122.250 390.050 " stroke="none" fill="#f5c404" fill-rule="evenodd" data-darkreader-inline-fill="" data-darkreader-inline-stroke="" ></path></g></svg>